<svg width="100%" height="100%" viewBox="0 0 1921 1081" version="1.1" xmlns="http://www.w3.org/2000/svg" xmlns:xlink="http://www.w3.org/1999/xlink" xml:space="preserve" xmlns:serif="http://www.serif.com/" style="fill-rule:evenodd;clip-rule:evenodd;stroke-linecap:square;stroke-linejoin:bevel;stroke-miterlimit:1.5;">
    <g transform="matrix(1,0,0,1,-3,-3684)">
        <g id="Hosting_light" transform="matrix(1,0,0,1,3.79171,3684.24)">
            <rect x="0" y="0" width="1920" height="1080" style="fill:rgb(250,250,250);"/>
            <clipPath id="_clip1">
                <rect x="0" y="0" width="1920" height="1080"/>
            </clipPath>
            <g clip-path="url(#_clip1)">
                <g transform="matrix(1,0,0,1,-1949.56,-8)">
                    <path d="M3256.5,499C3302.59,499 3340,536.415 3340,582.5C3340,628.585 3302.59,666 3256.5,666C3210.41,666 3173,628.585 3173,582.5C3173,536.415 3210.41,499 3256.5,499ZM3256.5,540.75C3279.54,540.75 3298.25,559.458 3298.25,582.5C3298.25,605.542 3279.54,624.25 3256.5,624.25C3233.46,624.25 3214.75,605.542 3214.75,582.5C3214.75,559.458 3233.46,540.75 3256.5,540.75Z" style="fill:rgb(245,245,245);"/>
                </g>
                <g transform="matrix(1,0,0,1,-1589.65,-8)">
                    <path d="M3256.5,499C3302.59,499 3340,536.415 3340,582.5C3340,628.585 3302.59,666 3256.5,666C3210.41,666 3173,628.585 3173,582.5C3173,536.415 3210.41,499 3256.5,499ZM3256.5,540.75C3279.54,540.75 3298.25,559.458 3298.25,582.5C3298.25,605.542 3279.54,624.25 3256.5,624.25C3233.46,624.25 3214.75,605.542 3214.75,582.5C3214.75,559.458 3233.46,540.75 3256.5,540.75Z" style="fill:rgb(245,245,245);"/>
                </g>
                <g transform="matrix(1,0,0,1,-2.14125,70)">
                    <g transform="matrix(1,0,0,1,-1940.86,19.2094)">
                        <path d="M3144,260L3815,260" style="fill:none;stroke:rgb(225,225,225);stroke-width:2px;"/>
                    </g>
                    <g transform="matrix(1,0,0,1,-1940.86,-58.2094)">
                        <path d="M3144,260L3815,260" style="fill:none;stroke:rgb(225,225,225);stroke-width:2px;"/>
                    </g>
                    <g transform="matrix(1,0,0,1,-1940.86,0)">
                        <rect x="3144" y="156" width="671" height="169" style="fill:none;stroke:rgb(225,225,225);stroke-width:2px;"/>
                    </g>
                    <g transform="matrix(1,0,0,1,-1940.86,0)">
                        <path d="M3230,156L3230,325" style="fill:none;stroke:rgb(225,225,225);stroke-width:2px;"/>
                    </g>
                    <g transform="matrix(1,0,0,1,-1851.91,0)">
                        <path d="M3230,156L3230,325" style="fill:none;stroke:rgb(225,225,225);stroke-width:2px;"/>
                    </g>
                    <g transform="matrix(1,0,0,1,-1762.96,0)">
                        <path d="M3230,156L3230,325" style="fill:none;stroke:rgb(225,225,225);stroke-width:2px;"/>
                    </g>
                    <g transform="matrix(1,0,0,1,-1674.01,0)">
                        <path d="M3230,156L3230,325" style="fill:none;stroke:rgb(225,225,225);stroke-width:2px;"/>
                    </g>
                    <g transform="matrix(1,0,0,1,-1585.06,0)">
                        <path d="M3230,156L3230,325" style="fill:none;stroke:rgb(225,225,225);stroke-width:2px;"/>
                    </g>
                    <g transform="matrix(1,0,0,1,-1496.11,0)">
                        <path d="M3230,156L3230,325" style="fill:none;stroke:rgb(225,225,225);stroke-width:2px;"/>
                    </g>
                    <g transform="matrix(1,0,0,1,-1407.16,0)">
                        <path d="M3230,156L3230,325" style="fill:none;stroke:rgb(225,225,225);stroke-width:2px;"/>
                    </g>
                    <g transform="matrix(1.5181,0,0,1,-5459.8,-38)">
                        <path d="M4389,363L4414,363L4418,336L4422,363L4432,363L4435,355L4438,363L4477,363L4483,271L4489,363L4493,363L4495,354L4497,363L4519,363L4521,335L4524,363L4539,363L4542,337L4545,363L4559,363L4562,324L4565,363L4575,363L4583,233L4591,363L4650,363L4653,345L4656,363L4674,363L4678,326L4683,363L4695,363L4700,338L4704,363L4725,363L4733,278L4740,363L4765,363L4769,345L4774,363L4783,363L4788,325L4794,363L4808,363L4812,345L4816,363L4831,363" style="fill:none;stroke:rgb(122,162,247);stroke-opacity:0.58;stroke-width:1.56px;"/>
                    </g>
                    <g transform="matrix(-1.89548,0,0,0.65,10360.2,89.05)">
                        <path d="M4477,363L4483,271L4489,363L4493,363L4495,354L4497,363L4519,363L4521,335L4524,363L4539,363L4542,337L4545,363L4559,363L4562,324L4565,363L4575,363L4583,233L4591,363L4650,363L4653,345L4656,363L4674,363L4678,326L4683,363L4695,363L4700,338L4704,363L4725,363L4733,278L4740,363L4765,363L4769,345L4774,363L4783,363L4788,325L4794,363L4808,363L4812,345L4816,363L4831,363" style="fill:none;stroke:rgb(158,206,106);stroke-opacity:0.58;stroke-width:1.41px;"/>
                    </g>
                </g>
                <g transform="matrix(0.788646,0,0,0.104339,-361.2,80.1143)">
                    <rect x="458" y="135" width="1462" height="945" style="fill:none;"/>
                </g>
                <g transform="matrix(0.788646,0,0,0.104339,-361.2,375.703)">
                    <rect x="458" y="135" width="1462" height="945" style="fill:none;"/>
                </g>
                <g transform="matrix(0.788646,0,0,0.104339,-361.2,671.227)">
                    <rect x="458" y="135" width="1462" height="945" style="fill:none;"/>
                </g>
                <g transform="matrix(0.788646,0,0,0.104339,-361.2,178.714)">
                    <rect x="458" y="135" width="1462" height="945" style="fill:none;"/>
                </g>
                <g transform="matrix(0.788646,0,0,0.104339,-361.2,474.303)">
                    <rect x="458" y="135" width="1462" height="945" style="fill:none;"/>
                </g>
                <g transform="matrix(0.788646,0,0,0.104339,-361.2,769.827)">
                    <rect x="458" y="135" width="1462" height="945" style="fill:none;"/>
                </g>
                <g transform="matrix(0.788646,0,0,0.104339,-361.2,277.267)">
                    <rect x="458" y="135" width="1462" height="945" style="fill:rgb(245,245,245);"/>
                </g>
                <g transform="matrix(0.45896,0,0,0.0450794,991.796,737.267)">
                    <rect x="458" y="135" width="1462" height="945" style="fill:rgb(245,245,245);"/>
                </g>
                <g transform="matrix(0.788646,0,0,0.104339,-361.2,572.855)">
                    <rect x="458" y="135" width="1462" height="945" style="fill:none;"/>
                </g>
                <g transform="matrix(0.788646,0,0,0.104339,-361.2,868.38)">
                    <rect x="458" y="135" width="1462" height="945" style="fill:none;"/>
                </g>
                <g transform="matrix(0.788646,0,0,0.104339,-361.2,966.948)">
                    <rect x="458" y="135" width="1462" height="945" style="fill:none;"/>
                </g>
                <g transform="matrix(1,0,0,1,0,3)">
                    <g transform="matrix(1.26526,0,0,1.26526,-114.648,-142.422)">
                        <circle cx="116" cy="134" r="8" style="fill:rgb(238,104,77);"/>
                    </g>
                    <g transform="matrix(1.26526,0,0,1.26526,-86.6102,-142.422)">
                        <circle cx="116" cy="134" r="8" style="fill:rgb(238,156,77);"/>
                    </g>
                    <g transform="matrix(1.26526,0,0,1.26526,-58.5727,-142.422)">
                        <circle cx="116" cy="134" r="8" style="fill:rgb(137,238,77);"/>
                    </g>
                </g>
                <g transform="matrix(1.12633,0,0,1.12633,3641.53,-1105.13)">
                    <path d="M-1572.19,1017.33C-1575.74,1014.4 -1578,1009.96 -1578,1005C-1578,996.169 -1570.83,989 -1562,989C-1553.17,989 -1546,996.169 -1546,1005C-1546,1009.96 -1548.26,1014.4 -1551.81,1017.33C-1552.49,1017.89 -1553.21,1018.4 -1553.98,1018.84C-1556.34,1020.21 -1559.08,1021 -1562,1021C-1564.92,1021 -1567.66,1020.21 -1570.02,1018.84C-1570.79,1018.4 -1571.51,1017.89 -1572.19,1017.33ZM-1552.08,1014.87C-1549.56,1012.34 -1548,1008.85 -1548,1005C-1548,997.273 -1554.27,991 -1562,991C-1569.73,991 -1576,997.273 -1576,1005C-1576,1008.85 -1574.44,1012.34 -1571.92,1014.87C-1571.18,1011.67 -1568.91,1009.04 -1565.93,1007.79C-1567.79,1006.53 -1569,1004.4 -1569,1002C-1569,998.137 -1565.86,995 -1562,995C-1558.14,995 -1555,998.137 -1555,1002C-1555,1004.4 -1556.22,1006.53 -1558.07,1007.79C-1555.09,1009.04 -1552.82,1011.67 -1552.08,1014.87ZM-1570.15,1016.38C-1567.85,1018.03 -1565.04,1019 -1562,1019C-1558.96,1019 -1556.15,1018.03 -1553.85,1016.38C-1554.26,1012.24 -1557.75,1009 -1562,1009C-1566.25,1009 -1569.74,1012.24 -1570.15,1016.38ZM-1562,1007C-1559.24,1007 -1557,1004.76 -1557,1002C-1557,999.24 -1559.24,997 -1562,997C-1564.76,997 -1567,999.24 -1567,1002C-1567,1004.76 -1564.76,1007 -1562,1007Z" style="fill:rgb(225,225,225);"/>
                </g>
                <g transform="matrix(0.524624,0,0,1,912.722,0)">
                    <rect x="458" y="135" width="1462" height="945" style="fill:none;stroke:rgb(245,245,245);stroke-width:2.5px;"/>
                </g>
                <g transform="matrix(1.26526,0,0,1.26526,-100.471,-41.6952)">
                    <circle cx="116" cy="134" r="8" style="fill:rgb(137,238,77);"/>
                </g>
                <g transform="matrix(1.26526,0,0,1.26526,-100.471,253.893)">
                    <circle cx="116" cy="134" r="8" style="fill:rgb(137,238,77);"/>
                </g>
                <g transform="matrix(1.26526,0,0,1.26526,-100.471,549.418)">
                    <circle cx="116" cy="134" r="8" style="fill:rgb(137,238,77);"/>
                </g>
                <path d="M1153,1080L1153,52L1920,52" style="fill:none;stroke:rgb(245,245,245);stroke-width:2px;"/>
                <path d="M1920,52L0,52" style="fill:none;stroke:rgb(245,245,245);stroke-width:2px;"/>
                <g transform="matrix(1.39942,0,0,1,-766.88,-41)">
                    <path d="M1920,135L548,135" style="fill:none;stroke:rgb(245,245,245);stroke-width:1.64px;"/>
                </g>
                <g transform="matrix(69.6189,0,0,1,-43011.9,-37.2751)">
                    <path d="M626,165.918C626,172.034 625.929,177 625.841,177L619.159,177C619.071,177 619,172.034 619,165.918C619,159.802 619.071,154.836 619.159,154.836L625.841,154.836C625.929,154.836 626,159.802 626,165.918Z" style="fill:rgb(216,219,232);"/>
                </g>
                <g transform="matrix(22.1904,0,0,1,-13653.6,258.313)">
                    <path d="M626,165.918C626,172.034 625.776,177 625.501,177L619.499,177C619.224,177 619,172.034 619,165.918C619,159.802 619.224,154.836 619.499,154.836L625.501,154.836C625.776,154.836 626,159.802 626,165.918Z" style="fill:rgb(216,219,232);"/>
                </g>
                <g transform="matrix(59.385,0,0,1,-36677.1,553.838)">
                    <path d="M626,165.918C626,172.034 625.916,177 625.813,177L619.187,177C619.084,177 619,172.034 619,165.918C619,159.802 619.084,154.836 619.187,154.836L625.813,154.836C625.916,154.836 626,159.802 626,165.918Z" style="fill:rgb(216,219,232);"/>
                </g>
                <g transform="matrix(15.8625,0,0,1,-9235.45,-37.2751)">
                    <path d="M626,165.918C626,172.034 625.687,177 625.301,177L619.699,177C619.313,177 619,172.034 619,165.918C619,159.802 619.313,154.836 619.699,154.836L625.301,154.836C625.687,154.836 626,159.802 626,165.918Z" style="fill:rgb(216,219,232);"/>
                </g>
                <g transform="matrix(15.8625,0,0,1,-9569.79,258.313)">
                    <path d="M626,165.918C626,172.034 625.687,177 625.301,177L619.699,177C619.313,177 619,172.034 619,165.918C619,159.802 619.313,154.836 619.699,154.836L625.301,154.836C625.687,154.836 626,159.802 626,165.918Z" style="fill:rgb(216,219,232);"/>
                </g>
                <g transform="matrix(13.5308,0,0,1,-7865.76,553.838)">
                    <path d="M626,165.918C626,172.034 625.633,177 625.181,177L619.819,177C619.367,177 619,172.034 619,165.918C619,159.802 619.367,154.836 619.819,154.836L625.181,154.836C625.633,154.836 626,159.802 626,165.918Z" style="fill:rgb(216,219,232);"/>
                </g>
                <g transform="matrix(15.8625,0,0,1,-9079.61,-37.2751)">
                    <path d="M626,165.918C626,172.034 625.687,177 625.301,177L619.699,177C619.313,177 619,172.034 619,165.918C619,159.802 619.313,154.836 619.699,154.836L625.301,154.836C625.687,154.836 626,159.802 626,165.918Z" style="fill:rgb(122,162,247);"/>
                </g>
                <g transform="matrix(15.8625,0,0,1,-8074.59,599.638)">
                    <path d="M626,165.918C626,172.034 625.687,177 625.301,177L619.699,177C619.313,177 619,172.034 619,165.918C619,159.802 619.313,154.836 619.699,154.836L625.301,154.836C625.687,154.836 626,159.802 626,165.918Z" style="fill:rgb(122,162,247);"/>
                </g>
                <g transform="matrix(11.8377,0,0,0.746268,-6159.95,-8.70686)">
                    <path d="M626,165.918C626,172.034 625.687,177 625.301,177L619.699,177C619.313,177 619,172.034 619,165.918C619,159.802 619.313,154.836 619.699,154.836L625.301,154.836C625.687,154.836 626,159.802 626,165.918Z" style="fill:rgb(122,162,247);"/>
                </g>
                <g transform="matrix(6.8377,0,0,0.746268,-3033.03,294.997)">
                    <path d="M626,165.918C626,172.034 625.458,177 624.791,177L620.209,177C619.542,177 619,172.034 619,165.918C619,159.802 619.542,154.836 620.209,154.836L624.791,154.836C625.458,154.836 626,159.802 626,165.918Z" style="fill:rgb(122,162,247);fill-opacity:0.75;"/>
                </g>
                <g transform="matrix(15.8625,0,0,1,-9079.61,258.313)">
                    <path d="M626,165.918C626,172.034 625.687,177 625.301,177L619.699,177C619.313,177 619,172.034 619,165.918C619,159.802 619.313,154.836 619.699,154.836L625.301,154.836C625.687,154.836 626,159.802 626,165.918Z" style="fill:rgb(122,162,247);"/>
                </g>
                <g transform="matrix(15.8625,0,0,1,-9079.61,553.838)">
                    <path d="M626,165.918C626,172.034 625.687,177 625.301,177L619.699,177C619.313,177 619,172.034 619,165.918C619,159.802 619.313,154.836 619.699,154.836L625.301,154.836C625.687,154.836 626,159.802 626,165.918Z" style="fill:rgb(122,162,247);"/>
                </g>
                <g transform="matrix(87.4643,0,0,1,-54058.2,-5.56092)">
                    <path d="M626,165.918C626,172.034 625.943,177 625.873,177L619.127,177C619.057,177 619,172.034 619,165.918C619,159.802 619.057,154.836 619.127,154.836L625.873,154.836C625.943,154.836 626,159.802 626,165.918Z" style="fill:rgb(225,225,225);"/>
                </g>
                <g transform="matrix(74.6072,0,0,1,-46099.6,290.027)">
                    <path d="M626,165.918C626,172.034 625.933,177 625.851,177L619.149,177C619.067,177 619,172.034 619,165.918C619,159.802 619.067,154.836 619.149,154.836L625.851,154.836C625.933,154.836 626,159.802 626,165.918Z" style="fill:rgb(225,225,225);"/>
                </g>
                <g transform="matrix(74.6072,0,0,1,-46099.6,585.552)">
                    <path d="M626,165.918C626,172.034 625.933,177 625.851,177L619.149,177C619.067,177 619,172.034 619,165.918C619,159.802 619.067,154.836 619.149,154.836L625.851,154.836C625.933,154.836 626,159.802 626,165.918Z" style="fill:rgb(225,225,225);"/>
                </g>
                <g transform="matrix(7.62177,0,0,1,-3978.58,-5.56092)">
                    <path d="M626,165.918C626,172.034 625.348,177 624.546,177L620.454,177C619.652,177 619,172.034 619,165.918C619,159.802 619.652,154.836 620.454,154.836L624.546,154.836C625.348,154.836 626,159.802 626,165.918Z" style="fill:rgb(158,206,106);"/>
                </g>
                <g transform="matrix(5.68788,0,0,0.746268,-2260.67,-8.70686)">
                    <path d="M626,165.918C626,172.034 625.348,177 624.546,177L620.454,177C619.652,177 619,172.034 619,165.918C619,159.802 619.652,154.836 620.454,154.836L624.546,154.836C625.348,154.836 626,159.802 626,165.918Z" style="fill:rgb(158,206,106);"/>
                </g>
                <g transform="matrix(5.68788,0,0,0.746268,-2267.76,294.997)">
                    <path d="M626,165.918C626,172.034 625.348,177 624.546,177L620.454,177C619.652,177 619,172.034 619,165.918C619,159.802 619.652,154.836 620.454,154.836L624.546,154.836C625.348,154.836 626,159.802 626,165.918Z" style="fill:rgb(158,206,106);fill-opacity:0.75;"/>
                </g>
                <g transform="matrix(7.62177,0,0,1,-3978.58,290.027)">
                    <path d="M626,165.918C626,172.034 625.348,177 624.546,177L620.454,177C619.652,177 619,172.034 619,165.918C619,159.802 619.652,154.836 620.454,154.836L624.546,154.836C625.348,154.836 626,159.802 626,165.918Z" style="fill:rgb(158,206,106);"/>
                </g>
                <g transform="matrix(7.62177,0,0,1,-3978.58,585.552)">
                    <path d="M626,165.918C626,172.034 625.348,177 624.546,177L620.454,177C619.652,177 619,172.034 619,165.918C619,159.802 619.652,154.836 620.454,154.836L624.546,154.836C625.348,154.836 626,159.802 626,165.918Z" style="fill:rgb(158,206,106);"/>
                </g>
                <g transform="matrix(1,0,0,1,224,0)">
                    <g transform="matrix(1,0,0,1,-1940.86,0)">
                        <circle cx="2827" cy="128.643" r="3.357" style="fill:rgb(216,219,232);"/>
                    </g>
                    <g transform="matrix(1,0,0,1,-1931.81,0)">
                        <circle cx="2827" cy="128.643" r="3.357" style="fill:rgb(216,219,232);"/>
                    </g>
                    <g transform="matrix(1,0,0,1,-1922.76,0)">
                        <circle cx="2827" cy="128.643" r="3.357" style="fill:rgb(216,219,232);"/>
                    </g>
                </g>
                <g transform="matrix(1,0,0,1,224,295.588)">
                    <g transform="matrix(1,0,0,1,-1940.86,0)">
                        <circle cx="2827" cy="128.643" r="3.357" style="fill:rgb(216,219,232);"/>
                    </g>
                    <g transform="matrix(1,0,0,1,-1931.81,0)">
                        <circle cx="2827" cy="128.643" r="3.357" style="fill:rgb(216,219,232);"/>
                    </g>
                    <g transform="matrix(1,0,0,1,-1922.76,0)">
                        <circle cx="2827" cy="128.643" r="3.357" style="fill:rgb(216,219,232);"/>
                    </g>
                </g>
                <g transform="matrix(1,0,0,1,224,591.113)">
                    <g transform="matrix(1,0,0,1,-1940.86,0)">
                        <circle cx="2827" cy="128.643" r="3.357" style="fill:rgb(216,219,232);"/>
                    </g>
                    <g transform="matrix(1,0,0,1,-1931.81,0)">
                        <circle cx="2827" cy="128.643" r="3.357" style="fill:rgb(216,219,232);"/>
                    </g>
                    <g transform="matrix(1,0,0,1,-1922.76,0)">
                        <circle cx="2827" cy="128.643" r="3.357" style="fill:rgb(216,219,232);"/>
                    </g>
                </g>
                <g transform="matrix(1.26526,0,0,1.26526,-100.471,56.9048)">
                    <circle cx="116" cy="134" r="8" style="fill:rgb(137,238,77);"/>
                </g>
                <g transform="matrix(1.26526,0,0,1.26526,-100.471,352.493)">
                    <circle cx="116" cy="134" r="8" style="fill:rgb(238,156,77);"/>
                </g>
                <g transform="matrix(1.26526,0,0,1.26526,-100.471,648.018)">
                    <circle cx="116" cy="134" r="8" style="fill:rgb(238,104,77);"/>
                </g>
                <g transform="matrix(1.26526,0,0,1.26526,-100.471,155.457)">
                    <circle cx="116" cy="134" r="8" style="fill:rgb(137,238,77);"/>
                </g>
                <g transform="matrix(1.26526,0,0,1.26526,-100.471,451.046)">
                    <circle cx="116" cy="134" r="8" style="fill:rgb(137,238,77);"/>
                </g>
                <g transform="matrix(1.26526,0,0,1.26526,-100.471,746.57)">
                    <circle cx="116" cy="134" r="8" style="fill:rgb(137,238,77);"/>
                </g>
                <g transform="matrix(1.26526,0,0,1.26526,-100.471,845.139)">
                    <circle cx="116" cy="134" r="8" style="fill:rgb(137,238,77);"/>
                </g>
                <g transform="matrix(39.1447,0,0,1,-24148.3,61.3249)">
                    <path d="M626,165.918C626,172.034 625.873,177 625.717,177L619.283,177C619.127,177 619,172.034 619,165.918C619,159.802 619.127,154.836 619.283,154.836L625.717,154.836C625.873,154.836 626,159.802 626,165.918Z" style="fill:rgb(216,219,232);"/>
                </g>
                <g transform="matrix(65.8665,0,0,1,-40689.1,356.913)">
                    <path d="M626,165.918C626,172.034 625.925,177 625.832,177L619.168,177C619.075,177 619,172.034 619,165.918C619,159.802 619.075,154.836 619.168,154.836L625.832,154.836C625.925,154.836 626,159.802 626,165.918Z" style="fill:rgb(216,219,232);"/>
                </g>
                <g transform="matrix(53.0173,0,0,1,-32735.4,652.438)">
                    <path d="M626,165.918C626,172.034 625.906,177 625.791,177L619.209,177C619.094,177 619,172.034 619,165.918C619,159.802 619.094,154.836 619.209,154.836L625.791,154.836C625.906,154.836 626,159.802 626,165.918Z" style="fill:rgb(216,219,232);"/>
                </g>
                <g transform="matrix(62.6826,0,0,1,-38718.3,159.878)">
                    <path d="M626,165.918C626,172.034 625.921,177 625.823,177L619.177,177C619.079,177 619,172.034 619,165.918C619,159.802 619.079,154.836 619.177,154.836L625.823,154.836C625.921,154.836 626,159.802 626,165.918Z" style="fill:rgb(216,219,232);"/>
                </g>
                <g transform="matrix(46.081,0,0,1,-28441.9,455.466)">
                    <path d="M626,165.918C626,172.034 625.892,177 625.76,177L619.24,177C619.108,177 619,172.034 619,165.918C619,159.802 619.108,154.836 619.24,154.836L625.76,154.836C625.892,154.836 626,159.802 626,165.918Z" style="fill:rgb(216,219,232);"/>
                </g>
                <g transform="matrix(66.6625,0,0,1,-41181.8,750.99)">
                    <path d="M626,165.918C626,172.034 625.926,177 625.834,177L619.166,177C619.074,177 619,172.034 619,165.918C619,159.802 619.074,154.836 619.166,154.836L625.834,154.836C625.926,154.836 626,159.802 626,165.918Z" style="fill:rgb(216,219,232);"/>
                </g>
                <g transform="matrix(57.2245,0,0,1,-35339.7,849.559)">
                    <path d="M626,165.918C626,172.034 625.913,177 625.806,177L619.194,177C619.087,177 619,172.034 619,165.918C619,159.802 619.087,154.836 619.194,154.836L625.806,154.836C625.913,154.836 626,159.802 626,165.918Z" style="fill:rgb(216,219,232);"/>
                </g>
                <g transform="matrix(8.91904,0,0,1,-5152.82,61.3249)">
                    <path d="M626,165.918C626,172.034 625.443,177 624.757,177L620.243,177C619.557,177 619,172.034 619,165.918C619,159.802 619.557,154.836 620.243,154.836L624.757,154.836C625.443,154.836 626,159.802 626,165.918Z" style="fill:rgb(216,219,232);"/>
                </g>
                <g transform="matrix(15.0076,0,0,1,-8733.23,356.913)">
                    <path d="M626,165.918C626,172.034 625.669,177 625.262,177L619.738,177C619.331,177 619,172.034 619,165.918C619,159.802 619.331,154.836 619.738,154.836L625.262,154.836C625.669,154.836 626,159.802 626,165.918Z" style="fill:rgb(216,219,232);"/>
                </g>
                <g transform="matrix(12.0799,0,0,1,-7013.51,652.438)">
                    <path d="M626,165.918C626,172.034 625.589,177 625.083,177L619.917,177C619.411,177 619,172.034 619,165.918C619,159.802 619.411,154.836 619.917,154.836L625.083,154.836C625.589,154.836 626,159.802 626,165.918Z" style="fill:rgb(216,219,232);"/>
                </g>
                <g transform="matrix(14.2821,0,0,1,-8307.1,159.878)">
                    <path d="M626,165.918C626,172.034 625.652,177 625.224,177L619.776,177C619.348,177 619,172.034 619,165.918C619,159.802 619.348,154.836 619.776,154.836L625.224,154.836C625.652,154.836 626,159.802 626,165.918Z" style="fill:rgb(216,219,232);"/>
                </g>
                <g transform="matrix(10.4995,0,0,1,-6085.16,455.466)">
                    <path d="M626,165.918C626,172.034 625.527,177 624.945,177L620.055,177C619.473,177 619,172.034 619,165.918C619,159.802 619.473,154.836 620.055,154.836L624.945,154.836C625.527,154.836 626,159.802 626,165.918Z" style="fill:rgb(216,219,232);"/>
                </g>
                <g transform="matrix(15.1889,0,0,1,-8839.76,750.99)">
                    <path d="M626,165.918C626,172.034 625.673,177 625.27,177L619.73,177C619.327,177 619,172.034 619,165.918C619,159.802 619.327,154.836 619.73,154.836L625.27,154.836C625.673,154.836 626,159.802 626,165.918Z" style="fill:rgb(216,219,232);"/>
                </g>
                <g transform="matrix(13.0385,0,0,1,-7576.6,849.559)">
                    <path d="M626,165.918C626,172.034 625.619,177 625.15,177L619.85,177C619.381,177 619,172.034 619,165.918C619,159.802 619.381,154.836 619.85,154.836L625.15,154.836C625.619,154.836 626,159.802 626,165.918Z" style="fill:rgb(216,219,232);"/>
                </g>
                <g transform="matrix(15.8625,0,0,1,-9079.61,61.3249)">
                    <path d="M626,165.918C626,172.034 625.687,177 625.301,177L619.699,177C619.313,177 619,172.034 619,165.918C619,159.802 619.313,154.836 619.699,154.836L625.301,154.836C625.687,154.836 626,159.802 626,165.918Z" style="fill:rgb(122,162,247);"/>
                </g>
                <g transform="matrix(15.8625,0,0,1,-9079.61,356.913)">
                    <path d="M626,165.918C626,172.034 625.687,177 625.301,177L619.699,177C619.313,177 619,172.034 619,165.918C619,159.802 619.313,154.836 619.699,154.836L625.301,154.836C625.687,154.836 626,159.802 626,165.918Z" style="fill:rgb(122,162,247);"/>
                </g>
                <g transform="matrix(15.8625,0,0,1,-9079.61,652.438)">
                    <path d="M626,165.918C626,172.034 625.687,177 625.301,177L619.699,177C619.313,177 619,172.034 619,165.918C619,159.802 619.313,154.836 619.699,154.836L625.301,154.836C625.687,154.836 626,159.802 626,165.918Z" style="fill:rgb(122,162,247);"/>
                </g>
                <g transform="matrix(15.8625,0,0,1,-9079.61,159.878)">
                    <path d="M626,165.918C626,172.034 625.687,177 625.301,177L619.699,177C619.313,177 619,172.034 619,165.918C619,159.802 619.313,154.836 619.699,154.836L625.301,154.836C625.687,154.836 626,159.802 626,165.918Z" style="fill:rgb(122,162,247);"/>
                </g>
                <g transform="matrix(15.8625,0,0,1,-9079.61,455.466)">
                    <path d="M626,165.918C626,172.034 625.687,177 625.301,177L619.699,177C619.313,177 619,172.034 619,165.918C619,159.802 619.313,154.836 619.699,154.836L625.301,154.836C625.687,154.836 626,159.802 626,165.918Z" style="fill:rgb(122,162,247);"/>
                </g>
                <g transform="matrix(15.8625,0,0,1,-9079.61,750.99)">
                    <path d="M626,165.918C626,172.034 625.687,177 625.301,177L619.699,177C619.313,177 619,172.034 619,165.918C619,159.802 619.313,154.836 619.699,154.836L625.301,154.836C625.687,154.836 626,159.802 626,165.918Z" style="fill:rgb(122,162,247);"/>
                </g>
                <g transform="matrix(15.8625,0,0,1,-9079.61,849.559)">
                    <path d="M626,165.918C626,172.034 625.687,177 625.301,177L619.699,177C619.313,177 619,172.034 619,165.918C619,159.802 619.313,154.836 619.699,154.836L625.301,154.836C625.687,154.836 626,159.802 626,165.918Z" style="fill:rgb(122,162,247);"/>
                </g>
                <g transform="matrix(70.6072,0,0,1,-43623.6,93.0391)">
                    <path d="M626,165.918C626,172.034 625.93,177 625.843,177L619.157,177C619.07,177 619,172.034 619,165.918C619,159.802 619.07,154.836 619.157,154.836L625.843,154.836C625.93,154.836 626,159.802 626,165.918Z" style="fill:rgb(225,225,225);"/>
                </g>
                <g transform="matrix(39.7011,0,0,1,-24492.8,388.627)">
                    <path d="M626,165.918C626,172.034 625.875,177 625.721,177L619.279,177C619.125,177 619,172.034 619,165.918C619,159.802 619.125,154.836 619.279,154.836L625.721,154.836C625.875,154.836 626,159.802 626,165.918Z" style="fill:rgb(225,225,225);"/>
                </g>
                <g transform="matrix(66.6072,0,0,1,-41147.6,684.152)">
                    <path d="M626,165.918C626,172.034 625.925,177 625.834,177L619.166,177C619.075,177 619,172.034 619,165.918C619,159.802 619.075,154.836 619.166,154.836L625.834,154.836C625.925,154.836 626,159.802 626,165.918Z" style="fill:rgb(225,225,225);"/>
                </g>
                <g transform="matrix(87.4643,0,0,1,-54058.2,191.592)">
                    <path d="M626,165.918C626,172.034 625.943,177 625.873,177L619.127,177C619.057,177 619,172.034 619,165.918C619,159.802 619.057,154.836 619.127,154.836L625.873,154.836C625.943,154.836 626,159.802 626,165.918Z" style="fill:rgb(225,225,225);"/>
                </g>
                <g transform="matrix(81.1786,0,0,1,-50167.3,487.18)">
                    <path d="M626,165.918C626,172.034 625.939,177 625.863,177L619.137,177C619.061,177 619,172.034 619,165.918C619,159.802 619.061,154.836 619.137,154.836L625.863,154.836C625.939,154.836 626,159.802 626,165.918Z" style="fill:rgb(225,225,225);"/>
                </g>
                <g transform="matrix(60.5672,0,0,1,-37408.9,782.705)">
                    <path d="M626,165.918C626,172.034 625.918,177 625.817,177L619.183,177C619.082,177 619,172.034 619,165.918C619,159.802 619.082,154.836 619.183,154.836L625.817,154.836C625.918,154.836 626,159.802 626,165.918Z" style="fill:rgb(225,225,225);"/>
                </g>
                <g transform="matrix(65.3736,0,0,1,-40384,881.273)">
                    <path d="M626,165.918C626,172.034 625.924,177 625.83,177L619.17,177C619.076,177 619,172.034 619,165.918C619,159.802 619.076,154.836 619.17,154.836L625.83,154.836C625.924,154.836 626,159.802 626,165.918Z" style="fill:rgb(225,225,225);"/>
                </g>
                <g transform="matrix(7.62177,0,0,1,-3978.58,93.0391)">
                    <path d="M626,165.918C626,172.034 625.348,177 624.546,177L620.454,177C619.652,177 619,172.034 619,165.918C619,159.802 619.652,154.836 620.454,154.836L624.546,154.836C625.348,154.836 626,159.802 626,165.918Z" style="fill:rgb(158,206,106);"/>
                </g>
                <g transform="matrix(7.62177,0,0,1,-3978.58,388.627)">
                    <path d="M626,165.918C626,172.034 625.348,177 624.546,177L620.454,177C619.652,177 619,172.034 619,165.918C619,159.802 619.652,154.836 620.454,154.836L624.546,154.836C625.348,154.836 626,159.802 626,165.918Z" style="fill:rgb(238,156,77);"/>
                </g>
                <g transform="matrix(7.62177,0,0,1,-3978.58,684.152)">
                    <path d="M626,165.918C626,172.034 625.348,177 624.546,177L620.454,177C619.652,177 619,172.034 619,165.918C619,159.802 619.652,154.836 620.454,154.836L624.546,154.836C625.348,154.836 626,159.802 626,165.918Z" style="fill:rgb(238,104,77);"/>
                </g>
                <g transform="matrix(7.62177,0,0,1,-3978.58,191.592)">
                    <path d="M626,165.918C626,172.034 625.348,177 624.546,177L620.454,177C619.652,177 619,172.034 619,165.918C619,159.802 619.652,154.836 620.454,154.836L624.546,154.836C625.348,154.836 626,159.802 626,165.918Z" style="fill:rgb(158,206,106);"/>
                </g>
                <g transform="matrix(7.62177,0,0,1,-3978.58,487.18)">
                    <path d="M626,165.918C626,172.034 625.348,177 624.546,177L620.454,177C619.652,177 619,172.034 619,165.918C619,159.802 619.652,154.836 620.454,154.836L624.546,154.836C625.348,154.836 626,159.802 626,165.918Z" style="fill:rgb(158,206,106);"/>
                </g>
                <g transform="matrix(7.62177,0,0,1,-3978.58,782.705)">
                    <path d="M626,165.918C626,172.034 625.348,177 624.546,177L620.454,177C619.652,177 619,172.034 619,165.918C619,159.802 619.652,154.836 620.454,154.836L624.546,154.836C625.348,154.836 626,159.802 626,165.918Z" style="fill:rgb(158,206,106);"/>
                </g>
                <g transform="matrix(7.62177,0,0,1,-3978.58,881.273)">
                    <path d="M626,165.918C626,172.034 625.348,177 624.546,177L620.454,177C619.652,177 619,172.034 619,165.918C619,159.802 619.652,154.836 620.454,154.836L624.546,154.836C625.348,154.836 626,159.802 626,165.918Z" style="fill:rgb(158,206,106);"/>
                </g>
                <g transform="matrix(1,0,0,1,224,98.6)">
                    <g transform="matrix(1,0,0,1,-1940.86,0)">
                        <circle cx="2827" cy="128.643" r="3.357" style="fill:rgb(216,219,232);"/>
                    </g>
                    <g transform="matrix(1,0,0,1,-1931.81,0)">
                        <circle cx="2827" cy="128.643" r="3.357" style="fill:rgb(216,219,232);"/>
                    </g>
                    <g transform="matrix(1,0,0,1,-1922.76,0)">
                        <circle cx="2827" cy="128.643" r="3.357" style="fill:rgb(216,219,232);"/>
                    </g>
                </g>
                <g transform="matrix(1,0,0,1,224,394.188)">
                    <g transform="matrix(1,0,0,1,-1940.86,0)">
                        <circle cx="2827" cy="128.643" r="3.357" style="fill:rgb(216,219,232);"/>
                    </g>
                    <g transform="matrix(1,0,0,1,-1931.81,0)">
                        <circle cx="2827" cy="128.643" r="3.357" style="fill:rgb(216,219,232);"/>
                    </g>
                    <g transform="matrix(1,0,0,1,-1922.76,0)">
                        <circle cx="2827" cy="128.643" r="3.357" style="fill:rgb(216,219,232);"/>
                    </g>
                </g>
                <g transform="matrix(1,0,0,1,224,689.713)">
                    <g transform="matrix(1,0,0,1,-1940.86,0)">
                        <circle cx="2827" cy="128.643" r="3.357" style="fill:rgb(216,219,232);"/>
                    </g>
                    <g transform="matrix(1,0,0,1,-1931.81,0)">
                        <circle cx="2827" cy="128.643" r="3.357" style="fill:rgb(216,219,232);"/>
                    </g>
                    <g transform="matrix(1,0,0,1,-1922.76,0)">
                        <circle cx="2827" cy="128.643" r="3.357" style="fill:rgb(216,219,232);"/>
                    </g>
                </g>
                <g transform="matrix(1,0,0,1,224,197.153)">
                    <g transform="matrix(1,0,0,1,-1940.86,0)">
                        <circle cx="2827" cy="128.643" r="3.357" style="fill:rgb(216,219,232);"/>
                    </g>
                    <g transform="matrix(1,0,0,1,-1931.81,0)">
                        <circle cx="2827" cy="128.643" r="3.357" style="fill:rgb(216,219,232);"/>
                    </g>
                    <g transform="matrix(1,0,0,1,-1922.76,0)">
                        <circle cx="2827" cy="128.643" r="3.357" style="fill:rgb(216,219,232);"/>
                    </g>
                </g>
                <g transform="matrix(1,0,0,1,224,492.741)">
                    <g transform="matrix(1,0,0,1,-1940.86,0)">
                        <circle cx="2827" cy="128.643" r="3.357" style="fill:rgb(216,219,232);"/>
                    </g>
                    <g transform="matrix(1,0,0,1,-1931.81,0)">
                        <circle cx="2827" cy="128.643" r="3.357" style="fill:rgb(216,219,232);"/>
                    </g>
                    <g transform="matrix(1,0,0,1,-1922.76,0)">
                        <circle cx="2827" cy="128.643" r="3.357" style="fill:rgb(216,219,232);"/>
                    </g>
                </g>
                <g transform="matrix(1,0,0,1,224,788.265)">
                    <g transform="matrix(1,0,0,1,-1940.86,0)">
                        <circle cx="2827" cy="128.643" r="3.357" style="fill:rgb(216,219,232);"/>
                    </g>
                    <g transform="matrix(1,0,0,1,-1931.81,0)">
                        <circle cx="2827" cy="128.643" r="3.357" style="fill:rgb(216,219,232);"/>
                    </g>
                    <g transform="matrix(1,0,0,1,-1922.76,0)">
                        <circle cx="2827" cy="128.643" r="3.357" style="fill:rgb(216,219,232);"/>
                    </g>
                </g>
                <g transform="matrix(1,0,0,1,224,886.834)">
                    <g transform="matrix(1,0,0,1,-1940.86,0)">
                        <circle cx="2827" cy="128.643" r="3.357" style="fill:rgb(216,219,232);"/>
                    </g>
                    <g transform="matrix(1,0,0,1,-1931.81,0)">
                        <circle cx="2827" cy="128.643" r="3.357" style="fill:rgb(216,219,232);"/>
                    </g>
                    <g transform="matrix(1,0,0,1,-1922.76,0)">
                        <circle cx="2827" cy="128.643" r="3.357" style="fill:rgb(216,219,232);"/>
                    </g>
                </g>
                <g transform="matrix(0.928461,0,0,0.928461,1774.5,-51.2508)">
                    <circle cx="116" cy="134" r="8" style="fill:rgb(137,238,77);"/>
                </g>
                <g transform="matrix(45.9973,0,0,0.733812,-27304.7,-48.0072)">
                    <path d="M626,165.918C626,172.034 625.921,177 625.823,177L619.177,177C619.079,177 619,172.034 619,165.918C619,159.802 619.079,154.836 619.177,154.836L625.823,154.836C625.921,154.836 626,159.802 626,165.918Z" style="fill:rgb(216,219,232);"/>
                </g>
                <g transform="matrix(10.4804,0,0,0.733812,-4988.62,-48.0072)">
                    <path d="M626,165.918C626,172.034 625.652,177 625.224,177L619.776,177C619.348,177 619,172.034 619,165.918C619,159.802 619.348,154.836 619.776,154.836L625.224,154.836C625.652,154.836 626,159.802 626,165.918Z" style="fill:rgb(216,219,232);"/>
                </g>
                <g transform="matrix(11.6232,0,0,0.733812,-5995.18,77.8395)">
                    <path d="M626,165.918C626,172.034 625.687,177 625.3,177L619.7,177C619.313,177 619,172.034 619,165.918C619,159.802 619.313,154.836 619.7,154.836L625.3,154.836C625.687,154.836 626,159.802 626,165.918Z" style="fill:rgb(216,219,232);"/>
                </g>
                <g transform="matrix(11.6232,0,0,0.733812,-5980.79,643.984)">
                    <path d="M626,165.918C626,172.034 625.687,177 625.3,177L619.7,177C619.313,177 619,172.034 619,165.918C619,159.802 619.313,154.836 619.7,154.836L625.3,154.836C625.687,154.836 626,159.802 626,165.918Z" style="fill:rgb(216,219,232);"/>
                </g>
                <g transform="matrix(1,0,0,1,-1949.56,-8)">
                    <path d="M3221.99,658.533L3239.24,620.517C3244.66,622.977 3250.55,624.25 3256.5,624.25L3256.5,666C3244.6,666 3232.83,663.454 3221.99,658.533Z" style="fill:rgb(158,206,106);"/>
                </g>
                <g transform="matrix(1,0,0,1,-1589.65,-8)">
                    <path d="M3221.99,658.533L3239.24,620.517C3244.66,622.977 3250.55,624.25 3256.5,624.25L3256.5,666C3244.6,666 3232.83,663.454 3221.99,658.533Z" style="fill:rgb(158,206,106);"/>
                </g>
                <g transform="matrix(1,0,0,1,-1949.56,-8)">
                    <path d="M3183.95,623.836L3220.22,603.168C3224.6,610.847 3231.3,616.939 3239.36,620.568L3222.21,658.636C3206.1,651.378 3192.7,639.193 3183.95,623.836Z" style="fill:rgb(122,162,247);"/>
                </g>
                <g transform="matrix(15.8625,0,0,1,-8417.61,361.688)">
                    <path d="M626,165.918C626,172.034 625.687,177 625.301,177L619.699,177C619.313,177 619,172.034 619,165.918C619,159.802 619.313,154.836 619.699,154.836L625.301,154.836C625.687,154.836 626,159.802 626,165.918Z" style="fill:rgb(216,219,232);"/>
                </g>
                <g transform="matrix(15.8625,0,0,1,-8057.7,361.688)">
                    <path d="M626,165.918C626,172.034 625.687,177 625.301,177L619.699,177C619.313,177 619,172.034 619,165.918C619,159.802 619.313,154.836 619.699,154.836L625.301,154.836C625.687,154.836 626,159.802 626,165.918Z" style="fill:rgb(216,219,232);"/>
                </g>
                <g transform="matrix(7.62177,0,0,1,-3316.58,393.402)">
                    <path d="M626,165.918C626,172.034 625.348,177 624.546,177L620.454,177C619.652,177 619,172.034 619,165.918C619,159.802 619.652,154.836 620.454,154.836L624.546,154.836C625.348,154.836 626,159.802 626,165.918Z" style="fill:rgb(245,245,245);"/>
                </g>
                <g transform="matrix(7.62177,0,0,1,-2956.66,395.402)">
                    <path d="M626,165.918C626,172.034 625.348,177 624.546,177L620.454,177C619.652,177 619,172.034 619,165.918C619,159.802 619.652,154.836 620.454,154.836L624.546,154.836C625.348,154.836 626,159.802 626,165.918Z" style="fill:rgb(245,245,245);"/>
                </g>
                <g transform="matrix(7.62177,0,0,1,-2918.28,648.89)">
                    <path d="M626,165.918C626,172.034 625.348,177 624.546,177L620.454,177C619.652,177 619,172.034 619,165.918C619,159.802 619.652,154.836 620.454,154.836L624.546,154.836C625.348,154.836 626,159.802 626,165.918Z" style="fill:rgb(198,198,198);"/>
                </g>
                <g transform="matrix(47.1932,0,0,1,-27996.4,648.89)">
                    <path d="M626,165.918C626,172.034 625.895,177 625.765,177L619.235,177C619.105,177 619,172.034 619,165.918C619,159.802 619.105,154.836 619.235,154.836L625.765,154.836C625.895,154.836 626,159.802 626,165.918Z" style="fill:rgb(225,225,225);"/>
                </g>
                <g transform="matrix(7.62177,0,0,1,-2918.28,703.601)">
                    <path d="M626,165.918C626,172.034 625.348,177 624.546,177L620.454,177C619.652,177 619,172.034 619,165.918C619,159.802 619.652,154.836 620.454,154.836L624.546,154.836C625.348,154.836 626,159.802 626,165.918Z" style="fill:rgb(198,198,198);"/>
                </g>
                <g transform="matrix(35.7646,0,0,1,-20922.1,703.601)">
                    <path d="M626,165.918C626,172.034 625.861,177 625.69,177L619.31,177C619.139,177 619,172.034 619,165.918C619,159.802 619.139,154.836 619.31,154.836L625.69,154.836C625.861,154.836 626,159.802 626,165.918Z" style="fill:rgb(225,225,225);"/>
                </g>
                <g transform="matrix(7.62177,0,0,1,-2918.28,762.312)">
                    <path d="M626,165.918C626,172.034 625.348,177 624.546,177L620.454,177C619.652,177 619,172.034 619,165.918C619,159.802 619.652,154.836 620.454,154.836L624.546,154.836C625.348,154.836 626,159.802 626,165.918Z" style="fill:rgb(198,198,198);"/>
                </g>
                <g transform="matrix(47.1932,0,0,1,-27996.4,762.312)">
                    <path d="M626,165.918C626,172.034 625.895,177 625.765,177L619.235,177C619.105,177 619,172.034 619,165.918C619,159.802 619.105,154.836 619.235,154.836L625.765,154.836C625.895,154.836 626,159.802 626,165.918Z" style="fill:rgb(225,225,225);"/>
                </g>
                <g transform="matrix(7.62177,0,0,1,-2918.28,820.023)">
                    <path d="M626,165.918C626,172.034 625.348,177 624.546,177L620.454,177C619.652,177 619,172.034 619,165.918C619,159.802 619.652,154.836 620.454,154.836L624.546,154.836C625.348,154.836 626,159.802 626,165.918Z" style="fill:rgb(198,198,198);"/>
                </g>
                <g transform="matrix(51.4789,0,0,1,-30649.3,820.023)">
                    <path d="M626,165.918C626,172.034 625.904,177 625.785,177L619.215,177C619.096,177 619,172.034 619,165.918C619,159.802 619.096,154.836 619.215,154.836L625.785,154.836C625.904,154.836 626,159.802 626,165.918Z" style="fill:rgb(225,225,225);"/>
                </g>
                <g transform="matrix(1,0,0,1,-1942,580.791)">
                    <path d="M3144,260L3815,260" style="fill:none;stroke:rgb(245,245,245);stroke-width:2px;"/>
                </g>
                <g transform="matrix(1,0,0,1,-1942,638.443)">
                    <path d="M3144,260L3815,260" style="fill:none;stroke:rgb(245,245,245);stroke-width:2px;"/>
                </g>
                <g transform="matrix(1,0,0,1,-1942,696.095)">
                    <path d="M3144,260L3815,260" style="fill:none;stroke:rgb(245,245,245);stroke-width:2px;"/>
                </g>
                <g transform="matrix(1,0,0,1.34911,-1942,575.538)">
                    <path d="M3815,156L3815,325L3144,325L3144,156L3815,156ZM3813,157.482L3146,157.482L3146,323.518L3813,323.518L3813,157.482Z" style="fill:rgb(245,245,245);"/>
                </g>
            </g>
        </g>
    </g>
</svg>
