<svg width="64" height="64" viewBox="0 0 64 64" fill="none" xmlns="http://www.w3.org/2000/svg">
<g id="ecosystem">
<path id="Vector" d="M44 31.9995C44.0029 29.7055 43.2587 27.473 41.88 25.6395L47.2 20.3595C48.2397 20.7941 49.3532 21.025 50.48 21.0395C51.4992 21.0715 52.5147 20.9024 53.4684 20.5417C54.4222 20.181 55.2955 19.6359 56.0385 18.9375C56.7815 18.2391 57.3795 17.4011 57.7984 16.4715C58.2174 15.5418 58.449 14.5387 58.48 13.5195C58.48 11.3978 57.6371 9.36297 56.1369 7.86268C54.6366 6.36239 52.6017 5.51953 50.48 5.51953C48.3583 5.51953 46.3234 6.36239 44.8231 7.86268C43.3229 9.36297 42.48 11.3978 42.48 13.5195C42.4851 14.7568 42.8162 15.9709 43.44 17.0395L38.12 22.3595C36.2499 21.3128 34.1431 20.762 32 20.7595C29.3539 20.7231 26.77 21.5623 24.6504 23.1466C22.5308 24.7309 20.9943 26.9714 20.28 29.5195H17.52C16.9159 28.0257 15.8748 26.7492 14.533 25.857C13.1911 24.9649 11.6112 24.4987 10 24.5195C7.94835 24.4547 5.95462 25.2055 4.45525 26.6074C2.95588 28.0093 2.07304 29.9482 2 31.9995C2.03103 33.0187 2.26264 34.0218 2.68156 34.9515C3.10049 35.8811 3.69853 36.7191 4.4415 37.4175C5.18447 38.1159 6.0578 38.661 7.01156 39.0217C7.96532 39.3824 8.98082 39.5515 10 39.5195C11.6112 39.5404 13.1911 39.0742 14.533 38.182C15.8748 37.2899 16.9159 36.0133 17.52 34.5195H20.28C20.9943 37.0676 22.5308 39.3082 24.6504 40.8925C26.77 42.4768 29.3539 43.316 32 43.2795C33.5288 43.3275 35.052 43.0738 36.4827 42.5328C37.9133 41.9918 39.2233 41.1741 40.3377 40.1265C41.4522 39.0789 42.3493 37.822 42.9777 36.4275C43.606 35.033 43.9534 33.5283 44 31.9995ZM50.48 11.0395C51.2063 10.9727 51.9295 11.196 52.4916 11.6607C53.0537 12.1253 53.4091 12.7937 53.48 13.5195C53.3634 14.2311 52.9977 14.8781 52.4482 15.3449C51.8986 15.8117 51.2011 16.068 50.48 16.068C49.7589 16.068 49.0614 15.8117 48.5118 15.3449C47.9623 14.8781 47.5966 14.2311 47.48 13.5195C47.5608 12.7978 47.9189 12.1357 48.4786 11.673C49.0383 11.2103 49.756 10.9831 50.48 11.0395ZM10 34.5195C9.26971 34.5753 8.54664 34.3427 7.98583 33.8716C7.42502 33.4006 7.07111 32.7285 7 31.9995C7.08081 31.2778 7.43886 30.6157 7.9986 30.153C8.55834 29.6903 9.27596 29.4631 10 29.5195C10.724 29.4631 11.4417 29.6903 12.0014 30.153C12.5611 30.6157 12.9192 31.2778 13 31.9995C12.9289 32.7285 12.575 33.4006 12.0142 33.8716C11.4534 34.3427 10.7303 34.5753 10 34.5195ZM32 38.2795C30.241 38.3669 28.5186 37.7561 27.2077 36.58C25.8967 35.4039 25.1033 33.7577 25 31.9995C25.1031 30.2447 25.898 28.6023 27.2102 27.4326C28.5224 26.2629 30.2449 25.6612 32 25.7595C33.7525 25.6718 35.4692 26.2772 36.779 27.4448C38.0888 28.6124 38.8866 30.2485 39 31.9995C38.8866 33.7539 38.0901 35.394 36.7815 36.568C35.4729 37.742 33.7564 38.3564 32 38.2795Z" fill="currentColor"/>
<path id="Vector_2" d="M10 17.5195C11.1291 17.5268 12.2469 17.2951 13.28 16.8395L20.32 23.9995C21.3376 22.6367 22.5825 21.4594 24 20.5195L17.04 13.5195C17.6638 12.4509 17.9949 11.2368 18 9.9995C17.927 7.94813 17.0441 6.00926 15.5448 4.60736C14.0454 3.20545 12.0516 2.45471 10 2.5195C7.94835 2.45471 5.95462 3.20545 4.45525 4.60736C2.95588 6.00926 2.07304 7.94813 2 9.9995C2.03103 11.0187 2.26264 12.0218 2.68156 12.9515C3.10049 13.8811 3.69853 14.7191 4.4415 15.4175C5.18447 16.1159 6.0578 16.661 7.01156 17.0217C7.96532 17.3823 8.98082 17.5515 10 17.5195ZM10 7.5195C10.724 7.46311 11.4417 7.69025 12.0014 8.15297C12.5611 8.61568 12.9192 9.27777 13 9.9995C12.9289 10.7284 12.575 11.4005 12.0142 11.8716C11.4534 12.3427 10.7303 12.5753 10 12.5195C9.26971 12.5753 8.54664 12.3427 7.98583 11.8716C7.42502 11.4005 7.07111 10.7284 7 9.9995C7.08081 9.27777 7.43886 8.61568 7.9986 8.15297C8.55834 7.69025 9.27596 7.46311 10 7.5195ZM54 46.5195C52.8709 46.5122 51.7531 46.7439 50.72 47.1995L43.68 39.9995C42.6401 41.3229 41.382 42.4592 39.96 43.3595L46.92 50.3195C46.3084 51.3912 45.9911 52.6056 46 53.8395C46 55.9612 46.8429 57.9961 48.3431 59.4964C49.8434 60.9966 51.8783 61.8395 54 61.8395C56.1217 61.8395 58.1566 60.9966 59.6569 59.4964C61.1571 57.9961 62 55.9612 62 53.8395C61.8862 51.8165 60.9856 49.9182 59.4907 48.5503C57.9958 47.1825 56.0252 46.4536 54 46.5195ZM54 56.5195C53.2697 56.5753 52.5466 56.3427 51.9858 55.8716C51.425 55.4005 51.0711 54.7285 51 53.9995C51.1166 53.2879 51.4823 52.641 52.0318 52.1742C52.5814 51.7073 53.2789 51.451 54 51.451C54.7211 51.451 55.4186 51.7073 55.9682 52.1742C56.5177 52.641 56.8834 53.2879 57 53.9995C56.9289 54.7285 56.575 55.4005 56.0142 55.8716C55.4534 56.3427 54.7303 56.5753 54 56.5195Z" fill="currentColor"/>
</g>
</svg>
