<svg width="64" height="58" viewBox="0 0 64 58" fill="none" xmlns="http://www.w3.org/2000/svg">
<g id="opensource">
<path id="Vector" d="M59.6065 19.5387V16.072C59.6065 12.1124 56.5093 8.94485 52.6372 8.94485H34.3603C32.9287 8.94485 31.5844 8.13785 30.854 6.88291L29.3349 4.2382C28.0634 2.10135 25.77 0.726562 23.3154 0.726562H11.35C9.42133 0.726562 7.60981 1.53356 6.28021 2.96778C4.95062 4.40249 4.2641 6.30013 4.35199 8.27218L4.84857 19.5532H4.38128C3.11029 19.5532 1.91204 20.106 1.07903 21.0773C0.246513 22.0486 -0.13337 23.3484 0.0419233 24.6333L3.65082 51.3052C4.13275 54.8313 7.11322 57.506 10.5903 57.506H53.4409C56.9326 57.506 59.9131 54.8163 60.3955 51.2752L63.96 24.6338C64.1353 23.3489 63.7266 22.0486 62.8936 21.0778C62.0757 20.1065 60.9214 19.5387 59.6065 19.5387ZM7.25922 8.15283C7.21527 7.00226 7.60981 5.88165 8.38422 5.04469C9.15864 4.20823 10.2104 3.71485 11.3354 3.71485H23.3007C24.7324 3.71485 26.0766 4.52184 26.8071 5.77678L28.3266 8.4215C29.583 10.5733 31.8916 11.9481 34.3462 11.9481H52.6231C54.8726 11.9481 56.6699 13.7708 56.6699 16.087V19.5532H7.77045L7.25922 8.15283ZM61.0674 24.2154L57.5025 50.8717C57.2251 52.9337 55.4863 54.5177 53.4556 54.5177H10.6049C8.57416 54.5177 6.83539 52.9337 6.55805 50.8867L2.91986 24.2303C2.86175 23.7969 2.97845 23.3784 3.27044 23.0498C3.56292 22.7212 3.94281 22.5419 4.36664 22.5419H59.6211C60.0445 22.5419 60.439 22.7062 60.7168 23.0498C61.0088 23.3784 61.126 23.7819 61.0674 24.2154Z" fill="currentColor"/>
<path id="Vector_2" d="M26.6318 31.776C26.106 31.1482 25.1856 31.0733 24.5718 31.6117L18.0122 37.3341C17.6909 37.6182 17.5005 38.0367 17.5005 38.4696C17.5005 38.9031 17.6904 39.3216 18.0122 39.6057L24.5718 45.3281C24.8496 45.5673 25.1856 45.6867 25.5215 45.6867C25.9307 45.6867 26.3399 45.5074 26.6318 45.1638C27.1577 44.5366 27.085 43.5948 26.4712 43.0569L21.2114 38.4696L26.4712 33.8828C27.0703 33.345 27.1431 32.4032 26.6318 31.776Z" fill="currentColor"/>
<path id="Vector_3" d="M45.9902 37.3187L39.4301 31.5958C38.8164 31.058 37.896 31.1324 37.3701 31.7601C36.8442 32.3879 36.9169 33.3292 37.5307 33.867L42.7905 38.4543L37.5307 43.0411C36.9174 43.5794 36.8442 44.5203 37.3701 45.148C37.6626 45.4921 38.0712 45.6713 38.4804 45.6713C38.8164 45.6713 39.1523 45.5515 39.4301 45.3123L45.9902 39.5899C46.3115 39.3058 46.5014 38.8873 46.5014 38.4543C46.5014 38.0209 46.3115 37.6024 45.9902 37.3187Z" fill="currentColor"/>
<path id="Vector_4" d="M34.0683 27.1285C33.2793 26.9642 32.5049 27.4725 32.3442 28.279L28.2534 48.1518C28.0928 48.9588 28.5898 49.7508 29.3784 49.9151C29.4809 49.9301 29.583 49.9451 29.6855 49.9451C30.3574 49.9451 30.9712 49.4667 31.1172 48.7646L35.208 28.8918C35.354 28.0998 34.8574 27.3077 34.0683 27.1285Z" fill="currentColor"/>
</g>
</svg>
