<svg width="64" height="64" viewBox="0 0 64 64" fill="none" xmlns="http://www.w3.org/2000/svg">
<g id="scalability">
<path id="Vector" fill-rule="evenodd" clip-rule="evenodd" d="M62.6791 42.1718C62.6791 41.8076 62.9747 41.5121 63.3389 41.5121C63.7031 41.5121 63.9987 41.8076 63.9987 42.1718V45.4325C63.9987 45.7967 63.7031 46.0922 63.3389 46.0922C62.9747 46.0922 62.6791 45.7967 62.6791 45.4325V42.1718ZM2.30659 34.6213H27.0708C28.3415 34.6213 29.3774 35.6572 29.3774 36.9279V61.6921C29.3774 62.9628 28.3415 63.9987 27.0708 63.9987H2.30659C1.03585 63.9987 0 62.9628 0 61.6921V36.9279C0 35.6572 1.03585 34.6213 2.30659 34.6213ZM44.6618 11.3575C43.5732 11.3654 42.6838 10.4905 42.6746 9.40187C42.6667 8.31323 43.5415 7.42385 44.6302 7.41461L54.6298 7.29849C55.7184 7.29057 56.6078 8.16544 56.6171 9.25408L56.7332 19.2537C56.7411 20.3423 55.8662 21.2317 54.7776 21.241C53.689 21.2489 52.7996 20.374 52.7903 19.2854L52.7296 14.0375L36.3724 30.3948C35.5991 31.168 34.3468 31.168 33.5736 30.3948C32.8003 29.6215 32.8003 28.3692 33.5736 27.596L49.8715 11.2981L44.6618 11.3588V11.3575ZM13.4265 3.6156C13.3144 3.96132 12.9422 4.15134 12.5965 4.03785C12.2508 3.92437 12.0608 3.55358 12.1743 3.20785C12.4052 2.50321 12.7971 1.87246 13.3078 1.36311C13.8184 0.852436 14.4479 0.460527 15.1525 0.229603C15.4982 0.117441 15.8704 0.306138 15.9825 0.651863C16.0947 0.997588 15.906 1.3697 15.5603 1.48187C15.0588 1.64549 14.6089 1.92788 14.2407 2.29604C13.8725 2.66419 13.5902 3.11416 13.4265 3.6156ZM62.5181 48.4397C62.6303 48.094 63.0024 47.904 63.3481 48.0175C63.6939 48.131 63.8839 48.5018 63.7704 48.8475C63.5395 49.5521 63.1476 50.1829 62.6369 50.6922C62.1262 51.2029 61.4968 51.5948 60.7921 51.8257C60.4464 51.9379 60.0743 51.7492 59.9621 51.4035C59.85 51.0578 60.0387 50.6856 60.3844 50.5735C60.8858 50.4098 61.3358 50.1275 61.704 49.7593C62.0721 49.3911 62.3545 48.9412 62.5181 48.4397ZM60.3844 1.48187C60.0387 1.3697 59.8487 0.997588 59.9621 0.651863C60.0756 0.306138 60.4464 0.116121 60.7921 0.229603C61.4968 0.460527 62.1275 0.852436 62.6369 1.36311C63.1476 1.87378 63.5395 2.50321 63.7704 3.20785C63.8826 3.55358 63.6939 3.92569 63.3481 4.03785C63.0024 4.15002 62.6303 3.96132 62.5181 3.6156C62.3545 3.11416 62.0721 2.66419 61.704 2.29604C61.3358 1.92788 60.8858 1.64549 60.3844 1.48187ZM57.3758 50.7345C57.74 50.7345 58.0356 51.03 58.0356 51.3942C58.0356 51.7584 57.74 52.054 57.3758 52.054H54.1152C53.751 52.054 53.4554 51.7584 53.4554 51.3942C53.4554 51.03 53.751 50.7345 54.1152 50.7345H57.3758ZM50.266 50.7345C50.6302 50.7345 50.9258 51.03 50.9258 51.3942C50.9258 51.7584 50.6302 52.054 50.266 52.054H47.0054C46.6412 52.054 46.3456 51.7584 46.3456 51.3942C46.3456 51.03 46.6412 50.7345 47.0054 50.7345H50.266ZM43.1562 50.7345C43.5204 50.7345 43.816 51.03 43.816 51.3942C43.816 51.7584 43.5204 52.054 43.1562 52.054H39.8956C39.5314 52.054 39.2358 51.7584 39.2358 51.3942C39.2358 51.03 39.5314 50.7345 39.8956 50.7345H43.1562ZM36.0464 50.7345C36.4106 50.7345 36.7062 51.03 36.7062 51.3942C36.7062 51.7584 36.4106 52.054 36.0464 52.054H32.7858C32.4216 52.054 32.126 51.7584 32.126 51.3942C32.126 51.03 32.4216 50.7345 32.7858 50.7345H36.0464ZM13.2642 31.2129C13.2642 31.5771 12.9686 31.8727 12.6044 31.8727C12.2402 31.8727 11.9447 31.5771 11.9447 31.2129V27.9522C11.9447 27.588 12.2402 27.2925 12.6044 27.2925C12.9686 27.2925 13.2642 27.588 13.2642 27.9522V31.2129ZM13.2642 24.1031C13.2642 24.4673 12.9686 24.7629 12.6044 24.7629C12.2402 24.7629 11.9447 24.4673 11.9447 24.1031V20.8425C11.9447 20.4783 12.2402 20.1827 12.6044 20.1827C12.9686 20.1827 13.2642 20.4783 13.2642 20.8425V24.1031ZM13.2642 16.9933C13.2642 17.3575 12.9686 17.6531 12.6044 17.6531C12.2402 17.6531 11.9447 17.3575 11.9447 16.9933V13.7327C11.9447 13.3685 12.2402 13.0729 12.6044 13.0729C12.9686 13.0729 13.2642 13.3685 13.2642 13.7327V16.9933ZM13.2642 9.88351C13.2642 10.2477 12.9686 10.5433 12.6044 10.5433C12.2402 10.5433 11.9447 10.2477 11.9447 9.88351V6.62287C11.9447 6.25868 12.2402 5.96309 12.6044 5.96309C12.9686 5.96309 13.2642 6.25868 13.2642 6.62287V9.88351ZM18.5675 1.31956C18.2033 1.31956 17.9078 1.02398 17.9078 0.65978C17.9078 0.295582 18.2033 0 18.5675 0H21.8282C22.1924 0 22.4879 0.295582 22.4879 0.65978C22.4879 1.02398 22.1924 1.31956 21.8282 1.31956H18.5675ZM25.6773 1.31956C25.3131 1.31956 25.0175 1.02398 25.0175 0.65978C25.0175 0.295582 25.3131 0 25.6773 0H28.938C29.3022 0 29.5977 0.295582 29.5977 0.65978C29.5977 1.02398 29.3022 1.31956 28.938 1.31956H25.6773ZM32.7871 1.31956C32.4229 1.31956 32.1273 1.02398 32.1273 0.65978C32.1273 0.295582 32.4229 0 32.7871 0H36.0477C36.4119 0 36.7075 0.295582 36.7075 0.65978C36.7075 1.02398 36.4119 1.31956 36.0477 1.31956H32.7871ZM39.8969 1.31956C39.5327 1.31956 39.2371 1.02398 39.2371 0.65978C39.2371 0.295582 39.5327 0 39.8969 0H43.1575C43.5217 0 43.8173 0.295582 43.8173 0.65978C43.8173 1.02398 43.5217 1.31956 43.1575 1.31956H39.8969ZM47.0067 1.31956C46.6425 1.31956 46.3469 1.02398 46.3469 0.65978C46.3469 0.295582 46.6425 0 47.0067 0H50.2673C50.6315 0 50.9271 0.295582 50.9271 0.65978C50.9271 1.02398 50.6315 1.31956 50.2673 1.31956H47.0067ZM54.1165 1.31956C53.7523 1.31956 53.4567 1.02398 53.4567 0.65978C53.4567 0.295582 53.7523 0 54.1165 0H57.3771C57.7413 0 58.0369 0.295582 58.0369 0.65978C58.0369 1.02398 57.7413 1.31956 57.3771 1.31956H54.1165ZM62.6804 6.62287C62.6804 6.25868 62.976 5.96309 63.3402 5.96309C63.7044 5.96309 64 6.25868 64 6.62287V9.88351C64 10.2477 63.7044 10.5433 63.3402 10.5433C62.976 10.5433 62.6804 10.2477 62.6804 9.88351V6.62287ZM62.6804 13.7327C62.6804 13.3685 62.976 13.0729 63.3402 13.0729C63.7044 13.0729 64 13.3685 64 13.7327V16.9933C64 17.3575 63.7044 17.6531 63.3402 17.6531C62.976 17.6531 62.6804 17.3575 62.6804 16.9933V13.7327ZM62.6804 20.8425C62.6804 20.4783 62.976 20.1827 63.3402 20.1827C63.7044 20.1827 64 20.4783 64 20.8425V24.1031C64 24.4673 63.7044 24.7629 63.3402 24.7629C62.976 24.7629 62.6804 24.4673 62.6804 24.1031V20.8425ZM62.6804 27.9522C62.6804 27.588 62.976 27.2925 63.3402 27.2925C63.7044 27.2925 64 27.588 64 27.9522V31.2129C64 31.5771 63.7044 31.8727 63.3402 31.8727C62.976 31.8727 62.6804 31.5771 62.6804 31.2129V27.9522ZM62.6804 35.062C62.6804 34.6978 62.976 34.4023 63.3402 34.4023C63.7044 34.4023 64 34.6978 64 35.062V38.3227C64 38.6869 63.7044 38.9825 63.3402 38.9825C62.976 38.9825 62.6804 38.6869 62.6804 38.3227V35.062Z" fill="currentColor"/>
</g>
</svg>
