<svg width="1237" height="214" viewBox="0 0 1237 214" fill="none" xmlns="http://www.w3.org/2000/svg">
<path d="M1.32141 106.678H1235.46" stroke="url(#paint0_linear_3223_6275)" stroke-width="2.5" stroke-miterlimit="1.5" stroke-linecap="square" stroke-linejoin="bevel"/>
<path d="M1.32141 125.443C1.32141 125.443 268.809 125.593 354.402 125.443C394.833 125.373 430.122 177.055 470.553 177.055C516.737 177.055 721.978 176.358 768.162 176.358C805.867 176.358 844.01 125.384 881.716 125.443C976.468 125.593 1235.46 125.443 1235.46 125.443" stroke="url(#paint1_linear_3223_6275)" stroke-width="2.5" stroke-miterlimit="1.5" stroke-linecap="square" stroke-linejoin="bevel"/>
<path d="M1.32141 87.8339C1.32141 87.8339 268.809 87.6841 354.402 87.8339C394.833 87.9046 430.122 37.6964 470.553 37.6964C516.737 37.6964 721.978 37 768.162 37C805.867 37 844.01 87.8937 881.716 87.8339C976.468 87.6841 1235.46 87.8339 1235.46 87.8339" stroke="url(#paint2_linear_3223_6275)" stroke-width="2.5" stroke-miterlimit="1.5" stroke-linecap="square" stroke-linejoin="bevel"/>
<g filter="url(#filter0_d_3223_6275)">
<path d="M907.321 107C907.321 61.7127 944.034 25 989.321 25C1034.61 25 1071.32 61.7127 1071.32 107C1071.32 152.287 1034.61 189 989.321 189C944.034 189 907.321 152.287 907.321 107Z" fill="var(--ui-bg)"/>
<path d="M975.073 102C968.215 102 962.655 96.6483 962.655 90.0457C962.655 83.443 968.215 78.0937 975.073 78.0937C976.121 73.395 979.857 69.5603 984.873 68.0323C989.887 66.507 995.423 67.5177 999.391 70.699C1003.36 73.8723 1005.16 78.7177 1004.11 83.4163H1006.75C1011.85 83.4163 1015.99 87.5763 1015.99 92.7123C1015.99 97.8483 1011.85 102.011 1006.75 102.011H975.073" stroke="#135ABE" stroke-width="4" stroke-linecap="round" stroke-linejoin="round"/>
<path d="M956.739 122.22H957.801L963.111 135H961.779L960.123 131.004H954.381L952.743 135H951.393L956.739 122.22ZM959.835 130.014L957.261 123.696L954.651 130.014H959.835ZM972.575 135H971.351V129.762C971.351 128.658 971.189 127.854 970.865 127.35C970.541 126.834 970.031 126.576 969.335 126.576C968.855 126.576 968.381 126.696 967.913 126.936C967.445 127.164 967.031 127.482 966.671 127.89C966.323 128.286 966.071 128.742 965.915 129.258V135H964.691V125.622H965.807V127.746C966.059 127.29 966.389 126.894 966.797 126.558C967.205 126.21 967.667 125.94 968.183 125.748C968.699 125.556 969.233 125.46 969.785 125.46C970.301 125.46 970.739 125.556 971.099 125.748C971.459 125.94 971.747 126.216 971.963 126.576C972.179 126.924 972.335 127.35 972.431 127.854C972.527 128.346 972.575 128.898 972.575 129.51V135ZM979.597 134.55C979.501 134.586 979.351 134.652 979.147 134.748C978.943 134.844 978.697 134.928 978.409 135C978.121 135.072 977.809 135.108 977.473 135.108C977.125 135.108 976.795 135.042 976.483 134.91C976.183 134.778 975.943 134.58 975.763 134.316C975.583 134.04 975.493 133.704 975.493 133.308V126.594H974.197V125.622H975.493V122.454H976.717V125.622H978.877V126.594H976.717V132.966C976.741 133.302 976.861 133.554 977.077 133.722C977.305 133.89 977.563 133.974 977.851 133.974C978.187 133.974 978.493 133.92 978.769 133.812C979.045 133.692 979.213 133.608 979.273 133.56L979.597 134.55ZM985.018 135.18C984.346 135.18 983.722 135.054 983.146 134.802C982.57 134.538 982.072 134.184 981.652 133.74C981.232 133.284 980.902 132.762 980.662 132.174C980.434 131.586 980.32 130.956 980.32 130.284C980.32 129.408 980.518 128.604 980.914 127.872C981.322 127.14 981.88 126.558 982.588 126.126C983.296 125.682 984.1 125.46 985 125.46C985.924 125.46 986.728 125.682 987.412 126.126C988.108 126.57 988.654 127.158 989.05 127.89C989.446 128.61 989.644 129.402 989.644 130.266C989.644 130.362 989.644 130.458 989.644 130.554C989.644 130.638 989.638 130.704 989.626 130.752H981.598C981.658 131.424 981.844 132.024 982.156 132.552C982.48 133.068 982.894 133.482 983.398 133.794C983.914 134.094 984.472 134.244 985.072 134.244C985.684 134.244 986.26 134.088 986.8 133.776C987.352 133.464 987.736 133.056 987.952 132.552L989.014 132.84C988.822 133.284 988.528 133.686 988.132 134.046C987.736 134.406 987.268 134.688 986.728 134.892C986.2 135.084 985.63 135.18 985.018 135.18ZM981.562 129.87H988.492C988.444 129.186 988.258 128.586 987.934 128.07C987.622 127.554 987.208 127.152 986.692 126.864C986.188 126.564 985.63 126.414 985.018 126.414C984.406 126.414 983.848 126.564 983.344 126.864C982.84 127.152 982.426 127.56 982.102 128.088C981.79 128.604 981.61 129.198 981.562 129.87ZM991.587 121.86H992.811V132.876C992.811 133.344 992.895 133.65 993.063 133.794C993.231 133.938 993.435 134.01 993.675 134.01C993.891 134.01 994.107 133.986 994.323 133.938C994.539 133.89 994.725 133.842 994.881 133.794L995.097 134.784C994.869 134.88 994.587 134.958 994.251 135.018C993.927 135.078 993.645 135.108 993.405 135.108C992.853 135.108 992.409 134.946 992.073 134.622C991.749 134.298 991.587 133.854 991.587 133.29V121.86ZM1000.43 135.18C999.761 135.18 999.137 135.054 998.561 134.802C997.997 134.538 997.505 134.184 997.085 133.74C996.677 133.284 996.359 132.768 996.131 132.192C995.903 131.604 995.789 130.986 995.789 130.338C995.789 129.666 995.903 129.042 996.131 128.466C996.359 127.878 996.683 127.362 997.103 126.918C997.523 126.462 998.015 126.108 998.579 125.856C999.155 125.592 999.779 125.46 1000.45 125.46C1001.12 125.46 1001.74 125.592 1002.31 125.856C1002.87 126.108 1003.36 126.462 1003.78 126.918C1004.2 127.362 1004.53 127.878 1004.75 128.466C1004.98 129.042 1005.1 129.666 1005.1 130.338C1005.1 130.986 1004.98 131.604 1004.75 132.192C1004.53 132.768 1004.2 133.284 1003.78 133.74C1003.37 134.184 1002.88 134.538 1002.31 134.802C1001.74 135.054 1001.12 135.18 1000.43 135.18ZM997.031 130.356C997.031 131.052 997.181 131.688 997.481 132.264C997.793 132.828 998.207 133.278 998.723 133.614C999.239 133.938 999.809 134.1 1000.43 134.1C1001.06 134.1 1001.63 133.932 1002.14 133.596C1002.66 133.26 1003.07 132.804 1003.39 132.228C1003.7 131.64 1003.85 131.004 1003.85 130.32C1003.85 129.624 1003.7 128.988 1003.39 128.412C1003.07 127.836 1002.66 127.38 1002.14 127.044C1001.63 126.708 1001.06 126.54 1000.43 126.54C999.809 126.54 999.239 126.714 998.723 127.062C998.219 127.41 997.811 127.872 997.499 128.448C997.187 129.012 997.031 129.648 997.031 130.356ZM1011.93 135.18C1011.15 135.18 1010.45 134.976 1009.82 134.568C1009.21 134.16 1008.73 133.656 1008.37 133.056V138.834H1007.14V125.622H1008.24V127.44C1008.61 126.852 1009.11 126.378 1009.73 126.018C1010.36 125.646 1011.02 125.46 1011.73 125.46C1012.38 125.46 1012.97 125.598 1013.51 125.874C1014.05 126.138 1014.52 126.498 1014.92 126.954C1015.31 127.41 1015.62 127.932 1015.84 128.52C1016.06 129.096 1016.18 129.696 1016.18 130.32C1016.18 131.196 1016 132.006 1015.64 132.75C1015.29 133.482 1014.8 134.07 1014.16 134.514C1013.53 134.958 1012.78 135.18 1011.93 135.18ZM1011.59 134.1C1012.1 134.1 1012.57 133.998 1012.97 133.794C1013.38 133.578 1013.73 133.29 1014.02 132.93C1014.32 132.57 1014.55 132.168 1014.7 131.724C1014.86 131.268 1014.94 130.8 1014.94 130.32C1014.94 129.816 1014.85 129.336 1014.67 128.88C1014.5 128.424 1014.25 128.022 1013.93 127.674C1013.6 127.326 1013.23 127.05 1012.81 126.846C1012.39 126.642 1011.94 126.54 1011.44 126.54C1011.13 126.54 1010.81 126.6 1010.47 126.72C1010.14 126.84 1009.81 127.014 1009.5 127.242C1009.2 127.458 1008.95 127.704 1008.74 127.98C1008.54 128.256 1008.41 128.55 1008.37 128.862V131.742C1008.56 132.186 1008.82 132.588 1009.14 132.948C1009.46 133.296 1009.84 133.578 1010.26 133.794C1010.69 133.998 1011.13 134.1 1011.59 134.1ZM1022.3 135.18C1021.63 135.18 1021.01 135.054 1020.43 134.802C1019.85 134.538 1019.36 134.184 1018.94 133.74C1018.52 133.284 1018.19 132.762 1017.95 132.174C1017.72 131.586 1017.6 130.956 1017.6 130.284C1017.6 129.408 1017.8 128.604 1018.2 127.872C1018.61 127.14 1019.16 126.558 1019.87 126.126C1020.58 125.682 1021.38 125.46 1022.28 125.46C1023.21 125.46 1024.01 125.682 1024.7 126.126C1025.39 126.57 1025.94 127.158 1026.33 127.89C1026.73 128.61 1026.93 129.402 1026.93 130.266C1026.93 130.362 1026.93 130.458 1026.93 130.554C1026.93 130.638 1026.92 130.704 1026.91 130.752H1018.88C1018.94 131.424 1019.13 132.024 1019.44 132.552C1019.76 133.068 1020.18 133.482 1020.68 133.794C1021.2 134.094 1021.76 134.244 1022.36 134.244C1022.97 134.244 1023.54 134.088 1024.08 133.776C1024.64 133.464 1025.02 133.056 1025.24 132.552L1026.3 132.84C1026.11 133.284 1025.81 133.686 1025.42 134.046C1025.02 134.406 1024.55 134.688 1024.01 134.892C1023.48 135.084 1022.91 135.18 1022.3 135.18ZM1018.85 129.87H1025.78C1025.73 129.186 1025.54 128.586 1025.22 128.07C1024.91 127.554 1024.49 127.152 1023.98 126.864C1023.47 126.564 1022.91 126.414 1022.3 126.414C1021.69 126.414 1021.13 126.564 1020.63 126.864C1020.12 127.152 1019.71 127.56 1019.39 128.088C1019.07 128.604 1018.89 129.198 1018.85 129.87ZM965.16 149.52C965.16 148.74 965.292 147.978 965.556 147.234C965.832 146.478 966.228 145.794 966.744 145.182C967.26 144.558 967.896 144.066 968.652 143.706C969.408 143.334 970.266 143.148 971.226 143.148C972.366 143.148 973.338 143.412 974.142 143.94C974.958 144.456 975.558 145.122 975.942 145.938L974.952 146.55C974.676 145.986 974.328 145.542 973.908 145.218C973.488 144.882 973.038 144.642 972.558 144.498C972.09 144.354 971.622 144.282 971.154 144.282C970.386 144.282 969.708 144.438 969.12 144.75C968.532 145.05 968.034 145.458 967.626 145.974C967.23 146.478 966.93 147.048 966.726 147.684C966.522 148.308 966.42 148.944 966.42 149.592C966.42 150.3 966.54 150.978 966.78 151.626C967.02 152.274 967.356 152.85 967.788 153.354C968.22 153.846 968.724 154.242 969.3 154.542C969.888 154.83 970.524 154.974 971.208 154.974C971.688 154.974 972.18 154.89 972.684 154.722C973.188 154.554 973.656 154.296 974.088 153.948C974.532 153.6 974.886 153.15 975.15 152.598L976.194 153.138C975.93 153.774 975.522 154.314 974.97 154.758C974.418 155.202 973.8 155.538 973.116 155.766C972.444 155.994 971.784 156.108 971.136 156.108C970.26 156.108 969.456 155.922 968.724 155.55C967.992 155.166 967.356 154.662 966.816 154.038C966.288 153.402 965.88 152.694 965.592 151.914C965.304 151.122 965.16 150.324 965.16 149.52ZM978.148 142.86H979.372V153.876C979.372 154.344 979.456 154.65 979.624 154.794C979.792 154.938 979.996 155.01 980.236 155.01C980.452 155.01 980.668 154.986 980.884 154.938C981.1 154.89 981.286 154.842 981.442 154.794L981.658 155.784C981.43 155.88 981.148 155.958 980.812 156.018C980.488 156.078 980.206 156.108 979.966 156.108C979.414 156.108 978.97 155.946 978.634 155.622C978.31 155.298 978.148 154.854 978.148 154.29V142.86ZM986.995 156.18C986.323 156.18 985.699 156.054 985.123 155.802C984.559 155.538 984.067 155.184 983.647 154.74C983.239 154.284 982.921 153.768 982.693 153.192C982.465 152.604 982.351 151.986 982.351 151.338C982.351 150.666 982.465 150.042 982.693 149.466C982.921 148.878 983.245 148.362 983.665 147.918C984.085 147.462 984.577 147.108 985.141 146.856C985.717 146.592 986.341 146.46 987.013 146.46C987.685 146.46 988.303 146.592 988.867 146.856C989.431 147.108 989.923 147.462 990.343 147.918C990.763 148.362 991.087 148.878 991.315 149.466C991.543 150.042 991.657 150.666 991.657 151.338C991.657 151.986 991.543 152.604 991.315 153.192C991.087 153.768 990.763 154.284 990.343 154.74C989.935 155.184 989.443 155.538 988.867 155.802C988.303 156.054 987.679 156.18 986.995 156.18ZM983.593 151.356C983.593 152.052 983.743 152.688 984.043 153.264C984.355 153.828 984.769 154.278 985.285 154.614C985.801 154.938 986.371 155.1 986.995 155.1C987.619 155.1 988.189 154.932 988.705 154.596C989.221 154.26 989.635 153.804 989.947 153.228C990.259 152.64 990.415 152.004 990.415 151.32C990.415 150.624 990.259 149.988 989.947 149.412C989.635 148.836 989.221 148.38 988.705 148.044C988.189 147.708 987.619 147.54 986.995 147.54C986.371 147.54 985.801 147.714 985.285 148.062C984.781 148.41 984.373 148.872 984.061 149.448C983.749 150.012 983.593 150.648 983.593 151.356ZM993.614 152.13V146.622H994.838V151.914C994.838 152.982 995.018 153.78 995.378 154.308C995.75 154.836 996.296 155.1 997.016 155.1C997.496 155.1 997.958 154.998 998.402 154.794C998.858 154.578 999.26 154.278 999.608 153.894C999.956 153.498 1000.22 153.042 1000.4 152.526V146.622H1001.62V154.524C1001.62 154.692 1001.66 154.818 1001.73 154.902C1001.8 154.974 1001.91 155.016 1002.06 155.028V156C1001.91 156.012 1001.8 156.018 1001.71 156.018C1001.63 156.03 1001.55 156.036 1001.48 156.036C1001.24 156.012 1001.03 155.916 1000.85 155.748C1000.68 155.58 1000.59 155.376 1000.58 155.136L1000.54 153.876C1000.14 154.596 999.578 155.16 998.87 155.568C998.174 155.976 997.418 156.18 996.602 156.18C995.618 156.18 994.874 155.838 994.37 155.154C993.866 154.47 993.614 153.462 993.614 152.13ZM1003.76 151.338C1003.76 150.45 1003.94 149.64 1004.3 148.908C1004.67 148.164 1005.18 147.57 1005.83 147.126C1006.48 146.682 1007.22 146.46 1008.05 146.46C1008.83 146.46 1009.52 146.67 1010.13 147.09C1010.76 147.498 1011.24 147.996 1011.59 148.584V142.86H1012.82V154.524C1012.82 154.692 1012.85 154.818 1012.92 154.902C1013 154.974 1013.1 155.016 1013.25 155.028V156C1013.01 156.036 1012.82 156.048 1012.69 156.036C1012.44 156.024 1012.22 155.922 1012.02 155.73C1011.83 155.538 1011.74 155.328 1011.74 155.1V154.182C1011.36 154.794 1010.86 155.28 1010.22 155.64C1009.59 156 1008.93 156.18 1008.24 156.18C1007.6 156.18 1007 156.048 1006.44 155.784C1005.9 155.52 1005.43 155.16 1005.02 154.704C1004.63 154.248 1004.31 153.732 1004.09 153.156C1003.87 152.568 1003.76 151.962 1003.76 151.338ZM1011.59 152.778V149.88C1011.44 149.448 1011.18 149.058 1010.84 148.71C1010.49 148.35 1010.09 148.068 1009.65 147.864C1009.22 147.648 1008.78 147.54 1008.35 147.54C1007.85 147.54 1007.39 147.648 1006.98 147.864C1006.58 148.068 1006.22 148.35 1005.92 148.71C1005.63 149.07 1005.41 149.478 1005.26 149.934C1005.1 150.39 1005.02 150.858 1005.02 151.338C1005.02 151.842 1005.11 152.322 1005.27 152.778C1005.45 153.234 1005.71 153.642 1006.03 154.002C1006.35 154.35 1006.73 154.62 1007.15 154.812C1007.57 155.004 1008.02 155.1 1008.51 155.1C1008.83 155.1 1009.15 155.04 1009.49 154.92C1009.82 154.8 1010.14 154.638 1010.44 154.434C1010.75 154.218 1011.01 153.966 1011.21 153.678C1011.42 153.39 1011.54 153.09 1011.59 152.778Z" fill="currentColor"/>
</g>
<g filter="url(#filter1_d_3223_6275)">
<path d="M165.321 107C165.321 61.7127 202.034 25 247.321 25C292.609 25 329.321 61.7127 329.321 107C329.321 152.287 292.609 189 247.321 189C202.034 189 165.321 152.287 165.321 107Z" fill="var(--ui-bg)"/>
<path d="M263.321 96.4993C265.443 96.4993 267.478 95.6565 268.978 94.1562C270.479 92.6559 271.321 90.6211 271.321 88.4993V83.166C271.321 81.0443 270.479 79.0095 268.978 77.5092C267.478 76.0089 265.443 75.166 263.321 75.166H231.321C229.2 75.166 227.165 76.0089 225.665 77.5092C224.164 79.0095 223.321 81.0443 223.321 83.166V88.4993C223.321 90.6211 224.164 92.6559 225.665 94.1562C227.165 95.6565 229.2 96.4993 231.321 96.4993M263.321 96.4993H231.321M263.321 96.4993C265.443 96.4993 267.478 97.3422 268.978 98.8425C270.479 100.343 271.321 102.378 271.321 104.499V109.833C271.321 111.954 270.479 113.989 268.978 115.49C267.478 116.99 265.443 117.833 263.321 117.833H231.321C229.2 117.833 227.165 116.99 225.665 115.49C224.164 113.989 223.321 111.954 223.321 109.833V104.499C223.321 102.378 224.164 100.343 225.665 98.8425C227.165 97.3422 229.2 96.4993 231.321 96.4993M233.988 85.8327V85.8593M233.988 107.166V107.193M244.655 85.8327H260.655M244.655 107.166H260.655" stroke="#135ABE" stroke-width="4" stroke-linecap="round" stroke-linejoin="round"/>
<path d="M206.551 135.114C206.371 134.91 206.161 134.73 205.921 134.574C205.681 134.406 205.411 134.262 205.111 134.142C204.811 134.022 204.487 133.926 204.139 133.854C203.803 133.782 203.443 133.746 203.059 133.746C201.943 133.746 201.121 133.962 200.593 134.394C200.077 134.814 199.819 135.39 199.819 136.122C199.819 136.626 199.939 137.022 200.179 137.31C200.431 137.598 200.821 137.832 201.349 138.012C201.877 138.192 202.549 138.378 203.365 138.57C204.277 138.762 205.063 138.99 205.723 139.254C206.383 139.518 206.893 139.878 207.253 140.334C207.613 140.778 207.793 141.384 207.793 142.152C207.793 142.74 207.679 143.25 207.451 143.682C207.223 144.114 206.905 144.474 206.497 144.762C206.089 145.05 205.603 145.266 205.039 145.41C204.475 145.542 203.857 145.608 203.185 145.608C202.525 145.608 201.889 145.542 201.277 145.41C200.677 145.266 200.107 145.062 199.567 144.798C199.027 144.522 198.523 144.174 198.055 143.754L198.685 142.728C198.913 142.968 199.183 143.196 199.495 143.412C199.819 143.616 200.173 143.802 200.557 143.97C200.953 144.138 201.373 144.27 201.817 144.366C202.273 144.45 202.741 144.492 203.221 144.492C204.241 144.492 205.033 144.306 205.597 143.934C206.173 143.562 206.461 143.01 206.461 142.278C206.461 141.75 206.317 141.33 206.029 141.018C205.741 140.694 205.309 140.43 204.733 140.226C204.157 140.022 203.449 139.824 202.609 139.632C201.721 139.428 200.971 139.2 200.359 138.948C199.747 138.696 199.285 138.366 198.973 137.958C198.673 137.538 198.523 136.986 198.523 136.302C198.523 135.51 198.715 134.844 199.099 134.304C199.495 133.752 200.035 133.338 200.719 133.062C201.403 132.774 202.189 132.63 203.077 132.63C203.641 132.63 204.163 132.69 204.643 132.81C205.135 132.918 205.585 133.08 205.993 133.296C206.413 133.512 206.803 133.782 207.163 134.106L206.551 135.114ZM213.812 145.68C213.14 145.68 212.516 145.554 211.94 145.302C211.364 145.038 210.866 144.684 210.446 144.24C210.026 143.784 209.696 143.262 209.456 142.674C209.228 142.086 209.114 141.456 209.114 140.784C209.114 139.908 209.312 139.104 209.708 138.372C210.116 137.64 210.674 137.058 211.382 136.626C212.09 136.182 212.894 135.96 213.794 135.96C214.718 135.96 215.522 136.182 216.206 136.626C216.902 137.07 217.448 137.658 217.844 138.39C218.24 139.11 218.438 139.902 218.438 140.766C218.438 140.862 218.438 140.958 218.438 141.054C218.438 141.138 218.432 141.204 218.42 141.252H210.392C210.452 141.924 210.638 142.524 210.95 143.052C211.274 143.568 211.688 143.982 212.192 144.294C212.708 144.594 213.266 144.744 213.866 144.744C214.478 144.744 215.054 144.588 215.594 144.276C216.146 143.964 216.53 143.556 216.746 143.052L217.808 143.34C217.616 143.784 217.322 144.186 216.926 144.546C216.53 144.906 216.062 145.188 215.522 145.392C214.994 145.584 214.424 145.68 213.812 145.68ZM210.356 140.37H217.286C217.238 139.686 217.052 139.086 216.728 138.57C216.416 138.054 216.002 137.652 215.486 137.364C214.982 137.064 214.424 136.914 213.812 136.914C213.2 136.914 212.642 137.064 212.138 137.364C211.634 137.652 211.22 138.06 210.896 138.588C210.584 139.104 210.404 139.698 210.356 140.37ZM220.381 132.36H221.605V143.376C221.605 143.844 221.689 144.15 221.857 144.294C222.025 144.438 222.229 144.51 222.469 144.51C222.685 144.51 222.901 144.486 223.117 144.438C223.333 144.39 223.519 144.342 223.675 144.294L223.891 145.284C223.663 145.38 223.381 145.458 223.045 145.518C222.721 145.578 222.439 145.608 222.199 145.608C221.647 145.608 221.203 145.446 220.867 145.122C220.543 144.798 220.381 144.354 220.381 143.79V132.36ZM225.681 145.5V137.094H224.385V136.122H225.681V135.87C225.681 135.102 225.789 134.442 226.005 133.89C226.233 133.338 226.551 132.918 226.959 132.63C227.379 132.33 227.871 132.18 228.435 132.18C228.807 132.18 229.167 132.234 229.515 132.342C229.863 132.45 230.163 132.594 230.415 132.774L230.037 133.656C229.881 133.524 229.677 133.422 229.425 133.35C229.173 133.278 228.921 133.242 228.669 133.242C228.105 133.242 227.667 133.464 227.355 133.908C227.055 134.352 226.905 134.994 226.905 135.834V136.122H229.497V137.094H226.905V145.5H225.681ZM230.553 141.162V140.028H235.809V141.162H230.553ZM248.659 132.72V145.5H247.417V139.524H239.839V145.5H238.579V132.72H239.839V138.408H247.417V132.72H248.659ZM255.471 145.68C254.799 145.68 254.175 145.554 253.599 145.302C253.035 145.038 252.543 144.684 252.123 144.24C251.715 143.784 251.397 143.268 251.169 142.692C250.941 142.104 250.827 141.486 250.827 140.838C250.827 140.166 250.941 139.542 251.169 138.966C251.397 138.378 251.721 137.862 252.141 137.418C252.561 136.962 253.053 136.608 253.617 136.356C254.193 136.092 254.817 135.96 255.489 135.96C256.161 135.96 256.779 136.092 257.343 136.356C257.907 136.608 258.399 136.962 258.819 137.418C259.239 137.862 259.563 138.378 259.791 138.966C260.019 139.542 260.133 140.166 260.133 140.838C260.133 141.486 260.019 142.104 259.791 142.692C259.563 143.268 259.239 143.784 258.819 144.24C258.411 144.684 257.919 145.038 257.343 145.302C256.779 145.554 256.155 145.68 255.471 145.68ZM252.069 140.856C252.069 141.552 252.219 142.188 252.519 142.764C252.831 143.328 253.245 143.778 253.761 144.114C254.277 144.438 254.847 144.6 255.471 144.6C256.095 144.6 256.665 144.432 257.181 144.096C257.697 143.76 258.111 143.304 258.423 142.728C258.735 142.14 258.891 141.504 258.891 140.82C258.891 140.124 258.735 139.488 258.423 138.912C258.111 138.336 257.697 137.88 257.181 137.544C256.665 137.208 256.095 137.04 255.471 137.04C254.847 137.04 254.277 137.214 253.761 137.562C253.257 137.91 252.849 138.372 252.537 138.948C252.225 139.512 252.069 140.148 252.069 140.856ZM265.258 145.68C264.49 145.68 263.776 145.554 263.116 145.302C262.456 145.05 261.886 144.666 261.406 144.15L261.91 143.286C262.438 143.778 262.966 144.138 263.494 144.366C264.034 144.582 264.604 144.69 265.204 144.69C265.936 144.69 266.53 144.546 266.986 144.258C267.442 143.958 267.67 143.532 267.67 142.98C267.67 142.608 267.556 142.326 267.328 142.134C267.112 141.93 266.794 141.768 266.374 141.648C265.966 141.516 265.474 141.378 264.898 141.234C264.25 141.054 263.704 140.868 263.26 140.676C262.828 140.472 262.498 140.22 262.27 139.92C262.054 139.608 261.946 139.206 261.946 138.714C261.946 138.102 262.096 137.598 262.396 137.202C262.708 136.794 263.128 136.488 263.656 136.284C264.196 136.068 264.796 135.96 265.456 135.96C266.176 135.96 266.812 136.074 267.364 136.302C267.916 136.53 268.366 136.848 268.714 137.256L268.12 138.084C267.784 137.7 267.382 137.418 266.914 137.238C266.458 137.046 265.948 136.95 265.384 136.95C265 136.95 264.634 137.004 264.286 137.112C263.938 137.208 263.65 137.376 263.422 137.616C263.206 137.844 263.098 138.162 263.098 138.57C263.098 138.906 263.182 139.17 263.35 139.362C263.518 139.542 263.77 139.698 264.106 139.83C264.442 139.95 264.856 140.082 265.348 140.226C266.056 140.418 266.674 140.616 267.202 140.82C267.73 141.012 268.138 141.264 268.426 141.576C268.714 141.888 268.858 142.326 268.858 142.89C268.858 143.766 268.528 144.45 267.868 144.942C267.208 145.434 266.338 145.68 265.258 145.68ZM275.381 145.05C275.285 145.086 275.135 145.152 274.931 145.248C274.727 145.344 274.481 145.428 274.193 145.5C273.905 145.572 273.593 145.608 273.257 145.608C272.909 145.608 272.579 145.542 272.267 145.41C271.967 145.278 271.727 145.08 271.547 144.816C271.367 144.54 271.277 144.204 271.277 143.808V137.094H269.981V136.122H271.277V132.954H272.501V136.122H274.661V137.094H272.501V143.466C272.525 143.802 272.645 144.054 272.861 144.222C273.089 144.39 273.347 144.474 273.635 144.474C273.971 144.474 274.277 144.42 274.553 144.312C274.829 144.192 274.997 144.108 275.057 144.06L275.381 145.05ZM280.802 145.68C280.13 145.68 279.506 145.554 278.93 145.302C278.354 145.038 277.856 144.684 277.436 144.24C277.016 143.784 276.686 143.262 276.446 142.674C276.218 142.086 276.104 141.456 276.104 140.784C276.104 139.908 276.302 139.104 276.698 138.372C277.106 137.64 277.664 137.058 278.372 136.626C279.08 136.182 279.884 135.96 280.784 135.96C281.708 135.96 282.512 136.182 283.196 136.626C283.892 137.07 284.438 137.658 284.834 138.39C285.23 139.11 285.428 139.902 285.428 140.766C285.428 140.862 285.428 140.958 285.428 141.054C285.428 141.138 285.422 141.204 285.41 141.252H277.382C277.442 141.924 277.628 142.524 277.94 143.052C278.264 143.568 278.678 143.982 279.182 144.294C279.698 144.594 280.256 144.744 280.856 144.744C281.468 144.744 282.044 144.588 282.584 144.276C283.136 143.964 283.52 143.556 283.736 143.052L284.798 143.34C284.606 143.784 284.312 144.186 283.916 144.546C283.52 144.906 283.052 145.188 282.512 145.392C281.984 145.584 281.414 145.68 280.802 145.68ZM277.346 140.37H284.276C284.228 139.686 284.042 139.086 283.718 138.57C283.406 138.054 282.992 137.652 282.476 137.364C281.972 137.064 281.414 136.914 280.802 136.914C280.19 136.914 279.632 137.064 279.128 137.364C278.624 137.652 278.21 138.06 277.886 138.588C277.574 139.104 277.394 139.698 277.346 140.37ZM286.687 140.838C286.687 139.95 286.867 139.14 287.227 138.408C287.599 137.664 288.109 137.07 288.757 136.626C289.405 136.182 290.143 135.96 290.971 135.96C291.751 135.96 292.447 136.17 293.059 136.59C293.683 136.998 294.169 137.496 294.517 138.084V132.36H295.741V144.024C295.741 144.192 295.777 144.318 295.849 144.402C295.921 144.474 296.029 144.516 296.173 144.528V145.5C295.933 145.536 295.747 145.548 295.615 145.536C295.363 145.524 295.141 145.422 294.949 145.23C294.757 145.038 294.661 144.828 294.661 144.6V143.682C294.289 144.294 293.785 144.78 293.149 145.14C292.513 145.5 291.853 145.68 291.169 145.68C290.521 145.68 289.921 145.548 289.369 145.284C288.829 145.02 288.355 144.66 287.947 144.204C287.551 143.748 287.239 143.232 287.011 142.656C286.795 142.068 286.687 141.462 286.687 140.838ZM294.517 142.278V139.38C294.361 138.948 294.109 138.558 293.761 138.21C293.413 137.85 293.017 137.568 292.573 137.364C292.141 137.148 291.709 137.04 291.277 137.04C290.773 137.04 290.317 137.148 289.909 137.364C289.501 137.568 289.147 137.85 288.847 138.21C288.559 138.57 288.337 138.978 288.181 139.434C288.025 139.89 287.947 140.358 287.947 140.838C287.947 141.342 288.031 141.822 288.199 142.278C288.379 142.734 288.631 143.142 288.955 143.502C289.279 143.85 289.651 144.12 290.071 144.312C290.491 144.504 290.947 144.6 291.439 144.6C291.751 144.6 292.075 144.54 292.411 144.42C292.747 144.3 293.065 144.138 293.365 143.934C293.677 143.718 293.935 143.466 294.139 143.178C294.343 142.89 294.469 142.59 294.517 142.278Z" fill="currentColor"/>
</g>
<g filter="url(#filter2_d_3223_6275)">
<path d="M518.321 107C518.321 93.7452 529.067 83 542.321 83H694.321C707.576 83 718.321 93.7452 718.321 107C718.321 120.255 707.576 131 694.321 131H542.321C529.067 131 518.321 120.255 518.321 107Z" fill="var(--ui-bg)"/>
<path d="M568.564 105.875C568.81 105.875 569.038 105.919 569.249 106.007C569.46 106.095 569.648 106.218 569.812 106.376C569.976 106.534 570.099 106.719 570.181 106.93C570.263 107.141 570.31 107.369 570.321 107.615C570.321 107.844 570.277 108.066 570.19 108.283C570.102 108.5 569.976 108.69 569.812 108.854L563.51 115.174L560.196 116L561.023 112.687L567.324 106.376C567.488 106.212 567.679 106.089 567.896 106.007C568.112 105.925 568.335 105.881 568.564 105.875ZM569.196 107.615C569.196 107.434 569.138 107.287 569.021 107.176C568.903 107.064 568.751 107.006 568.564 107C568.482 107 568.402 107.012 568.326 107.035C568.25 107.059 568.183 107.103 568.124 107.167L562.042 113.267L561.743 114.453L562.93 114.154L569.012 108.063C569.135 107.94 569.196 107.791 569.196 107.615ZM564.696 100.25H570.321V105.137C569.987 104.908 569.612 104.753 569.196 104.671V101.375H565.821V106.051L564.696 107.176V100.25ZM554.571 101.375V100.25H556.821V101.375H554.571ZM560.196 100.25V101.375H557.946V100.25H560.196ZM554.571 113.75V112.625H556.821V113.75H554.571ZM557.946 113.75V112.625H559.704L559.423 113.75H557.946ZM552.321 105.875V103.625H553.446V105.875H552.321ZM552.321 102.5V100.25H553.446V102.5H552.321ZM552.321 112.625V110.375H553.446V112.625H552.321ZM552.321 109.25V107H553.446V109.25H552.321ZM562.446 104.75V107H561.321V104.75H562.446ZM562.446 101.375V103.625H561.321V101.375H562.446ZM562.446 108.125V109.25L561.321 110.375V108.125H562.446Z" fill="#135ABE"/>
<path d="M581.468 107.02C581.468 106.24 581.6 105.478 581.864 104.734C582.14 103.978 582.536 103.294 583.052 102.682C583.568 102.058 584.204 101.566 584.96 101.206C585.716 100.834 586.574 100.648 587.534 100.648C588.674 100.648 589.646 100.912 590.45 101.44C591.266 101.956 591.866 102.622 592.25 103.438L591.26 104.05C590.984 103.486 590.636 103.042 590.216 102.718C589.796 102.382 589.346 102.142 588.866 101.998C588.398 101.854 587.93 101.782 587.462 101.782C586.694 101.782 586.016 101.938 585.428 102.25C584.84 102.55 584.342 102.958 583.934 103.474C583.538 103.978 583.238 104.548 583.034 105.184C582.83 105.808 582.728 106.444 582.728 107.092C582.728 107.8 582.848 108.478 583.088 109.126C583.328 109.774 583.664 110.35 584.096 110.854C584.528 111.346 585.032 111.742 585.608 112.042C586.196 112.33 586.832 112.474 587.516 112.474C587.996 112.474 588.488 112.39 588.992 112.222C589.496 112.054 589.964 111.796 590.396 111.448C590.84 111.1 591.194 110.65 591.458 110.098L592.502 110.638C592.238 111.274 591.83 111.814 591.278 112.258C590.726 112.702 590.108 113.038 589.424 113.266C588.752 113.494 588.092 113.608 587.444 113.608C586.568 113.608 585.764 113.422 585.032 113.05C584.3 112.666 583.664 112.162 583.124 111.538C582.596 110.902 582.188 110.194 581.9 109.414C581.612 108.622 581.468 107.824 581.468 107.02ZM605.976 113.5V103.096L601.35 111.178H600.558L595.914 103.096V113.5H594.654V100.72H595.95L600.936 109.468L605.958 100.72H607.236V113.5H605.976ZM617.909 103.114C617.729 102.91 617.519 102.73 617.279 102.574C617.039 102.406 616.769 102.262 616.469 102.142C616.169 102.022 615.845 101.926 615.497 101.854C615.161 101.782 614.801 101.746 614.417 101.746C613.301 101.746 612.479 101.962 611.951 102.394C611.435 102.814 611.177 103.39 611.177 104.122C611.177 104.626 611.297 105.022 611.537 105.31C611.789 105.598 612.179 105.832 612.707 106.012C613.235 106.192 613.907 106.378 614.723 106.57C615.635 106.762 616.421 106.99 617.081 107.254C617.741 107.518 618.251 107.878 618.611 108.334C618.971 108.778 619.151 109.384 619.151 110.152C619.151 110.74 619.037 111.25 618.809 111.682C618.581 112.114 618.263 112.474 617.855 112.762C617.447 113.05 616.961 113.266 616.397 113.41C615.833 113.542 615.215 113.608 614.543 113.608C613.883 113.608 613.247 113.542 612.635 113.41C612.035 113.266 611.465 113.062 610.925 112.798C610.385 112.522 609.881 112.174 609.413 111.754L610.043 110.728C610.271 110.968 610.541 111.196 610.853 111.412C611.177 111.616 611.531 111.802 611.915 111.97C612.311 112.138 612.731 112.27 613.175 112.366C613.631 112.45 614.099 112.492 614.579 112.492C615.599 112.492 616.391 112.306 616.955 111.934C617.531 111.562 617.819 111.01 617.819 110.278C617.819 109.75 617.675 109.33 617.387 109.018C617.099 108.694 616.667 108.43 616.091 108.226C615.515 108.022 614.807 107.824 613.967 107.632C613.079 107.428 612.329 107.2 611.717 106.948C611.105 106.696 610.643 106.366 610.331 105.958C610.031 105.538 609.881 104.986 609.881 104.302C609.881 103.51 610.073 102.844 610.457 102.304C610.853 101.752 611.393 101.338 612.077 101.062C612.761 100.774 613.547 100.63 614.435 100.63C614.999 100.63 615.521 100.69 616.001 100.81C616.493 100.918 616.943 101.08 617.351 101.296C617.771 101.512 618.161 101.782 618.521 102.106L617.909 103.114ZM635.573 110.206C635.573 110.842 635.411 111.412 635.087 111.916C634.763 112.408 634.325 112.798 633.773 113.086C633.233 113.362 632.639 113.5 631.991 113.5H625.961V100.72H632.117C632.717 100.72 633.233 100.882 633.665 101.206C634.109 101.518 634.445 101.926 634.673 102.43C634.913 102.922 635.033 103.438 635.033 103.978C635.033 104.614 634.871 105.202 634.547 105.742C634.223 106.282 633.773 106.684 633.197 106.948C633.929 107.164 634.505 107.566 634.925 108.154C635.357 108.742 635.573 109.426 635.573 110.206ZM634.313 109.99C634.313 109.558 634.217 109.162 634.025 108.802C633.833 108.43 633.569 108.13 633.233 107.902C632.909 107.674 632.537 107.56 632.117 107.56H627.221V112.402H631.991C632.423 112.402 632.813 112.288 633.161 112.06C633.509 111.832 633.785 111.538 633.989 111.178C634.205 110.806 634.313 110.41 634.313 109.99ZM627.221 101.818V106.534H631.613C632.033 106.534 632.405 106.426 632.729 106.21C633.053 105.982 633.311 105.688 633.503 105.328C633.695 104.968 633.791 104.584 633.791 104.176C633.791 103.744 633.701 103.354 633.521 103.006C633.341 102.646 633.095 102.358 632.783 102.142C632.471 101.926 632.117 101.818 631.721 101.818H627.221ZM637.607 109.63V104.122H638.831V109.414C638.831 110.482 639.011 111.28 639.371 111.808C639.743 112.336 640.289 112.6 641.009 112.6C641.489 112.6 641.951 112.498 642.395 112.294C642.851 112.078 643.253 111.778 643.601 111.394C643.949 110.998 644.213 110.542 644.393 110.026V104.122H645.617V112.024C645.617 112.192 645.653 112.318 645.725 112.402C645.797 112.474 645.905 112.516 646.049 112.528V113.5C645.905 113.512 645.791 113.518 645.707 113.518C645.623 113.53 645.545 113.536 645.473 113.536C645.233 113.512 645.023 113.416 644.843 113.248C644.675 113.08 644.585 112.876 644.573 112.636L644.537 111.376C644.129 112.096 643.571 112.66 642.863 113.068C642.167 113.476 641.411 113.68 640.595 113.68C639.611 113.68 638.867 113.338 638.363 112.654C637.859 111.97 637.607 110.962 637.607 109.63ZM648.384 113.5V104.122H649.608V113.5H648.384ZM648.384 102.16V100.36H649.608V102.16H648.384ZM652.358 100.36H653.582V111.376C653.582 111.844 653.666 112.15 653.834 112.294C654.002 112.438 654.206 112.51 654.446 112.51C654.662 112.51 654.878 112.486 655.094 112.438C655.31 112.39 655.496 112.342 655.652 112.294L655.868 113.284C655.64 113.38 655.358 113.458 655.022 113.518C654.698 113.578 654.416 113.608 654.176 113.608C653.624 113.608 653.18 113.446 652.844 113.122C652.52 112.798 652.358 112.354 652.358 111.79V100.36ZM656.579 108.838C656.579 107.95 656.759 107.14 657.119 106.408C657.491 105.664 658.001 105.07 658.649 104.626C659.297 104.182 660.035 103.96 660.863 103.96C661.643 103.96 662.339 104.17 662.951 104.59C663.575 104.998 664.061 105.496 664.409 106.084V100.36H665.633V112.024C665.633 112.192 665.669 112.318 665.741 112.402C665.813 112.474 665.921 112.516 666.065 112.528V113.5C665.825 113.536 665.639 113.548 665.507 113.536C665.255 113.524 665.033 113.422 664.841 113.23C664.649 113.038 664.553 112.828 664.553 112.6V111.682C664.181 112.294 663.677 112.78 663.041 113.14C662.405 113.5 661.745 113.68 661.061 113.68C660.413 113.68 659.813 113.548 659.261 113.284C658.721 113.02 658.247 112.66 657.839 112.204C657.443 111.748 657.131 111.232 656.903 110.656C656.687 110.068 656.579 109.462 656.579 108.838ZM664.409 110.278V107.38C664.253 106.948 664.001 106.558 663.653 106.21C663.305 105.85 662.909 105.568 662.465 105.364C662.033 105.148 661.601 105.04 661.169 105.04C660.665 105.04 660.209 105.148 659.801 105.364C659.393 105.568 659.039 105.85 658.739 106.21C658.451 106.57 658.229 106.978 658.073 107.434C657.917 107.89 657.839 108.358 657.839 108.838C657.839 109.342 657.923 109.822 658.091 110.278C658.271 110.734 658.523 111.142 658.847 111.502C659.171 111.85 659.543 112.12 659.963 112.312C660.383 112.504 660.839 112.6 661.331 112.6C661.643 112.6 661.967 112.54 662.303 112.42C662.639 112.3 662.957 112.138 663.257 111.934C663.569 111.718 663.827 111.466 664.031 111.178C664.235 110.89 664.361 110.59 664.409 110.278ZM672.456 113.68C671.784 113.68 671.16 113.554 670.584 113.302C670.008 113.038 669.51 112.684 669.09 112.24C668.67 111.784 668.34 111.262 668.1 110.674C667.872 110.086 667.758 109.456 667.758 108.784C667.758 107.908 667.956 107.104 668.352 106.372C668.76 105.64 669.318 105.058 670.026 104.626C670.734 104.182 671.538 103.96 672.438 103.96C673.362 103.96 674.166 104.182 674.85 104.626C675.546 105.07 676.092 105.658 676.488 106.39C676.884 107.11 677.082 107.902 677.082 108.766C677.082 108.862 677.082 108.958 677.082 109.054C677.082 109.138 677.076 109.204 677.064 109.252H669.036C669.096 109.924 669.282 110.524 669.594 111.052C669.918 111.568 670.332 111.982 670.836 112.294C671.352 112.594 671.91 112.744 672.51 112.744C673.122 112.744 673.698 112.588 674.238 112.276C674.79 111.964 675.174 111.556 675.39 111.052L676.452 111.34C676.26 111.784 675.966 112.186 675.57 112.546C675.174 112.906 674.706 113.188 674.166 113.392C673.638 113.584 673.068 113.68 672.456 113.68ZM669 108.37H675.93C675.882 107.686 675.696 107.086 675.372 106.57C675.06 106.054 674.646 105.652 674.13 105.364C673.626 105.064 673.068 104.914 672.456 104.914C671.844 104.914 671.286 105.064 670.782 105.364C670.278 105.652 669.864 106.06 669.54 106.588C669.228 107.104 669.048 107.698 669 108.37ZM683.65 105.202C682.834 105.226 682.114 105.454 681.49 105.886C680.878 106.318 680.446 106.912 680.194 107.668V113.5H678.97V104.122H680.122V106.372C680.446 105.712 680.872 105.178 681.4 104.77C681.94 104.362 682.51 104.134 683.11 104.086C683.23 104.074 683.332 104.068 683.416 104.068C683.512 104.068 683.59 104.074 683.65 104.086V105.202Z" fill="currentColor"/>
</g>
<g filter="url(#filter3_d_3223_6275)">
<path d="M518.321 37C518.321 23.7452 529.067 13 542.321 13H694.321C707.576 13 718.321 23.7452 718.321 37C718.321 50.2548 707.576 61 694.321 61H542.321C529.067 61 518.321 50.2548 518.321 37Z" fill="var(--ui-bg)"/>
<path d="M579.25 28.6426H583.107C583.448 28.6426 583.775 28.778 584.016 29.0192C584.257 29.2603 584.393 29.5873 584.393 29.9283V42.1426C584.393 42.9951 584.054 43.8126 583.451 44.4154C582.849 45.0182 582.031 45.3569 581.179 45.3569C580.756 45.3569 580.338 45.2737 579.948 45.1122C579.559 44.9507 579.204 44.7139 578.906 44.4154C578.303 43.8126 577.964 42.9951 577.964 42.1426V29.9283C577.964 29.5873 578.1 29.2603 578.341 29.0192C578.582 28.778 578.909 28.6426 579.25 28.6426Z" stroke="#135ABE" stroke-width="1.71429" stroke-linecap="round" stroke-linejoin="round"/>
<path d="M584.393 34.4289L588.893 29.9032C589.134 29.6637 589.46 29.5293 589.799 29.5293C590.139 29.5293 590.465 29.6637 590.706 29.9032L593.419 32.6289C593.658 32.8698 593.792 33.1956 593.792 33.5353C593.792 33.875 593.658 34.2009 593.419 34.4417L583.454 44.4189" stroke="#135ABE" stroke-width="1.71429" stroke-linecap="round" stroke-linejoin="round"/>
<path d="M588.893 38.928H593.393C593.734 38.928 594.061 39.0635 594.302 39.3046C594.543 39.5457 594.679 39.8727 594.679 40.2137V44.0709C594.679 44.4119 594.543 44.7389 594.302 44.98C594.061 45.2211 593.734 45.3566 593.393 45.3566H581.179M577.964 33.7852H584.393M577.964 38.928H584.393" stroke="#135ABE" stroke-width="1.71429" stroke-linecap="round" stroke-linejoin="round"/>
<path d="M614.736 33.114C614.556 32.91 614.346 32.73 614.106 32.574C613.866 32.406 613.596 32.262 613.296 32.142C612.996 32.022 612.672 31.926 612.324 31.854C611.988 31.782 611.628 31.746 611.244 31.746C610.128 31.746 609.306 31.962 608.778 32.394C608.262 32.814 608.004 33.39 608.004 34.122C608.004 34.626 608.124 35.022 608.364 35.31C608.616 35.598 609.006 35.832 609.534 36.012C610.062 36.192 610.734 36.378 611.55 36.57C612.462 36.762 613.248 36.99 613.908 37.254C614.568 37.518 615.078 37.878 615.438 38.334C615.798 38.778 615.978 39.384 615.978 40.152C615.978 40.74 615.864 41.25 615.636 41.682C615.408 42.114 615.09 42.474 614.682 42.762C614.274 43.05 613.788 43.266 613.224 43.41C612.66 43.542 612.042 43.608 611.37 43.608C610.71 43.608 610.074 43.542 609.462 43.41C608.862 43.266 608.292 43.062 607.752 42.798C607.212 42.522 606.708 42.174 606.24 41.754L606.87 40.728C607.098 40.968 607.368 41.196 607.68 41.412C608.004 41.616 608.358 41.802 608.742 41.97C609.138 42.138 609.558 42.27 610.002 42.366C610.458 42.45 610.926 42.492 611.406 42.492C612.426 42.492 613.218 42.306 613.782 41.934C614.358 41.562 614.646 41.01 614.646 40.278C614.646 39.75 614.502 39.33 614.214 39.018C613.926 38.694 613.494 38.43 612.918 38.226C612.342 38.022 611.634 37.824 610.794 37.632C609.906 37.428 609.156 37.2 608.544 36.948C607.932 36.696 607.47 36.366 607.158 35.958C606.858 35.538 606.708 34.986 606.708 34.302C606.708 33.51 606.9 32.844 607.284 32.304C607.68 31.752 608.22 31.338 608.904 31.062C609.588 30.774 610.374 30.63 611.262 30.63C611.826 30.63 612.348 30.69 612.828 30.81C613.32 30.918 613.77 31.08 614.178 31.296C614.598 31.512 614.988 31.782 615.348 32.106L614.736 33.114ZM622.29 43.05C622.194 43.086 622.044 43.152 621.84 43.248C621.636 43.344 621.39 43.428 621.102 43.5C620.814 43.572 620.502 43.608 620.166 43.608C619.818 43.608 619.488 43.542 619.176 43.41C618.876 43.278 618.636 43.08 618.456 42.816C618.276 42.54 618.186 42.204 618.186 41.808V35.094H616.89V34.122H618.186V30.954H619.41V34.122H621.57V35.094H619.41V41.466C619.434 41.802 619.554 42.054 619.77 42.222C619.998 42.39 620.256 42.474 620.544 42.474C620.88 42.474 621.186 42.42 621.462 42.312C621.738 42.192 621.906 42.108 621.966 42.06L622.29 43.05ZM623.729 39.63V34.122H624.953V39.414C624.953 40.482 625.133 41.28 625.493 41.808C625.865 42.336 626.411 42.6 627.131 42.6C627.611 42.6 628.073 42.498 628.517 42.294C628.973 42.078 629.375 41.778 629.723 41.394C630.071 40.998 630.335 40.542 630.515 40.026V34.122H631.739V42.024C631.739 42.192 631.775 42.318 631.847 42.402C631.919 42.474 632.027 42.516 632.171 42.528V43.5C632.027 43.512 631.913 43.518 631.829 43.518C631.745 43.53 631.667 43.536 631.595 43.536C631.355 43.512 631.145 43.416 630.965 43.248C630.797 43.08 630.707 42.876 630.695 42.636L630.659 41.376C630.251 42.096 629.693 42.66 628.985 43.068C628.289 43.476 627.533 43.68 626.717 43.68C625.733 43.68 624.989 43.338 624.485 42.654C623.981 41.97 623.729 40.962 623.729 39.63ZM633.876 38.838C633.876 37.95 634.056 37.14 634.416 36.408C634.788 35.664 635.298 35.07 635.946 34.626C636.594 34.182 637.332 33.96 638.16 33.96C638.94 33.96 639.636 34.17 640.248 34.59C640.872 34.998 641.358 35.496 641.706 36.084V30.36H642.93V42.024C642.93 42.192 642.966 42.318 643.038 42.402C643.11 42.474 643.218 42.516 643.362 42.528V43.5C643.122 43.536 642.936 43.548 642.804 43.536C642.552 43.524 642.33 43.422 642.138 43.23C641.946 43.038 641.85 42.828 641.85 42.6V41.682C641.478 42.294 640.974 42.78 640.338 43.14C639.702 43.5 639.042 43.68 638.358 43.68C637.71 43.68 637.11 43.548 636.558 43.284C636.018 43.02 635.544 42.66 635.136 42.204C634.74 41.748 634.428 41.232 634.2 40.656C633.984 40.068 633.876 39.462 633.876 38.838ZM641.706 40.278V37.38C641.55 36.948 641.298 36.558 640.95 36.21C640.602 35.85 640.206 35.568 639.762 35.364C639.33 35.148 638.898 35.04 638.466 35.04C637.962 35.04 637.506 35.148 637.098 35.364C636.69 35.568 636.336 35.85 636.036 36.21C635.748 36.57 635.526 36.978 635.37 37.434C635.214 37.89 635.136 38.358 635.136 38.838C635.136 39.342 635.22 39.822 635.388 40.278C635.568 40.734 635.82 41.142 636.144 41.502C636.468 41.85 636.84 42.12 637.26 42.312C637.68 42.504 638.136 42.6 638.628 42.6C638.94 42.6 639.264 42.54 639.6 42.42C639.936 42.3 640.254 42.138 640.554 41.934C640.866 41.718 641.124 41.466 641.328 41.178C641.532 40.89 641.658 40.59 641.706 40.278ZM645.704 43.5V34.122H646.928V43.5H645.704ZM645.704 32.16V30.36H646.928V32.16H645.704ZM653.62 43.68C652.948 43.68 652.324 43.554 651.748 43.302C651.184 43.038 650.692 42.684 650.272 42.24C649.864 41.784 649.546 41.268 649.318 40.692C649.09 40.104 648.976 39.486 648.976 38.838C648.976 38.166 649.09 37.542 649.318 36.966C649.546 36.378 649.87 35.862 650.29 35.418C650.71 34.962 651.202 34.608 651.766 34.356C652.342 34.092 652.966 33.96 653.638 33.96C654.31 33.96 654.928 34.092 655.492 34.356C656.056 34.608 656.548 34.962 656.968 35.418C657.388 35.862 657.712 36.378 657.94 36.966C658.168 37.542 658.282 38.166 658.282 38.838C658.282 39.486 658.168 40.104 657.94 40.692C657.712 41.268 657.388 41.784 656.968 42.24C656.56 42.684 656.068 43.038 655.492 43.302C654.928 43.554 654.304 43.68 653.62 43.68ZM650.218 38.856C650.218 39.552 650.368 40.188 650.668 40.764C650.98 41.328 651.394 41.778 651.91 42.114C652.426 42.438 652.996 42.6 653.62 42.6C654.244 42.6 654.814 42.432 655.33 42.096C655.846 41.76 656.26 41.304 656.572 40.728C656.884 40.14 657.04 39.504 657.04 38.82C657.04 38.124 656.884 37.488 656.572 36.912C656.26 36.336 655.846 35.88 655.33 35.544C654.814 35.208 654.244 35.04 653.62 35.04C652.996 35.04 652.426 35.214 651.91 35.562C651.406 35.91 650.998 36.372 650.686 36.948C650.374 37.512 650.218 38.148 650.218 38.856Z" fill="currentColor"/>
</g>
<g filter="url(#filter4_d_3223_6275)">
<path d="M518.321 177C518.321 163.745 529.067 153 542.321 153H694.321C707.576 153 718.321 163.745 718.321 177C718.321 190.255 707.576 201 694.321 201H542.321C529.067 201 518.321 190.255 518.321 177Z" fill="var(--ui-bg)"/>
<path d="M568.186 170.358C568.377 170.412 568.54 170.54 568.637 170.713C568.734 170.886 568.759 171.091 568.705 171.283L565.382 183.124C565.356 183.219 565.311 183.307 565.25 183.385C565.189 183.462 565.114 183.527 565.028 183.575C564.942 183.624 564.847 183.654 564.749 183.666C564.652 183.678 564.553 183.67 564.458 183.644C564.363 183.617 564.274 183.572 564.197 183.511C564.119 183.45 564.055 183.375 564.006 183.289C563.958 183.203 563.927 183.109 563.915 183.011C563.904 182.913 563.911 182.814 563.938 182.719L567.26 170.878C567.287 170.783 567.332 170.694 567.393 170.617C567.454 170.539 567.529 170.474 567.615 170.426C567.701 170.378 567.796 170.347 567.894 170.335C567.992 170.324 568.091 170.331 568.186 170.358ZM562.727 173.288C562.867 173.429 562.946 173.62 562.946 173.819C562.946 174.018 562.867 174.208 562.727 174.349L560.075 177.001L562.727 179.652C562.796 179.722 562.852 179.804 562.889 179.895C562.927 179.986 562.947 180.084 562.947 180.183C562.947 180.281 562.927 180.379 562.89 180.47C562.852 180.561 562.797 180.643 562.727 180.713C562.657 180.783 562.575 180.838 562.484 180.876C562.393 180.913 562.295 180.933 562.197 180.933C562.098 180.933 562.001 180.914 561.91 180.876C561.819 180.838 561.736 180.783 561.666 180.713L558.484 177.531C558.343 177.391 558.264 177.2 558.264 177.001C558.264 176.802 558.343 176.611 558.484 176.471L561.666 173.288C561.807 173.148 561.998 173.069 562.196 173.069C562.395 173.069 562.586 173.148 562.727 173.288ZM569.916 174.349C569.845 174.28 569.787 174.197 569.748 174.105C569.709 174.014 569.688 173.916 569.687 173.816C569.686 173.716 569.705 173.618 569.743 173.525C569.781 173.433 569.836 173.35 569.907 173.279C569.977 173.209 570.061 173.153 570.153 173.115C570.245 173.078 570.344 173.059 570.444 173.059C570.543 173.06 570.642 173.081 570.733 173.12C570.825 173.16 570.907 173.217 570.977 173.288L574.159 176.471C574.3 176.611 574.378 176.802 574.378 177.001C574.378 177.2 574.3 177.391 574.159 177.531L570.977 180.713C570.836 180.854 570.645 180.933 570.446 180.933C570.247 180.933 570.056 180.854 569.916 180.713C569.775 180.572 569.696 180.381 569.696 180.183C569.696 179.984 569.775 179.793 569.916 179.652L572.567 177.001L569.916 174.349Z" fill="#135ABE"/>
<path d="M587.051 183.5V170.72H595.439V171.836H588.311V176.534H594.323V177.578H588.311V183.5H587.051ZM601.393 175.202C600.577 175.226 599.857 175.454 599.233 175.886C598.621 176.318 598.189 176.912 597.937 177.668V183.5H596.713V174.122H597.865V176.372C598.189 175.712 598.615 175.178 599.143 174.77C599.683 174.362 600.253 174.134 600.853 174.086C600.973 174.074 601.075 174.068 601.159 174.068C601.255 174.068 601.333 174.074 601.393 174.086V175.202ZM602.233 180.8C602.233 180.212 602.401 179.708 602.737 179.288C603.073 178.856 603.535 178.526 604.123 178.298C604.723 178.058 605.413 177.938 606.193 177.938C606.649 177.938 607.123 177.974 607.615 178.046C608.107 178.118 608.545 178.226 608.929 178.37V177.578C608.929 176.786 608.695 176.156 608.227 175.688C607.759 175.22 607.111 174.986 606.283 174.986C605.779 174.986 605.281 175.082 604.789 175.274C604.309 175.454 603.805 175.724 603.277 176.084L602.809 175.22C603.421 174.8 604.021 174.488 604.609 174.284C605.197 174.068 605.797 173.96 606.409 173.96C607.561 173.96 608.473 174.29 609.145 174.95C609.817 175.61 610.153 176.522 610.153 177.686V182.024C610.153 182.192 610.189 182.318 610.261 182.402C610.333 182.474 610.447 182.516 610.603 182.528V183.5C610.471 183.512 610.357 183.524 610.261 183.536C610.165 183.548 610.093 183.548 610.045 183.536C609.745 183.524 609.517 183.428 609.361 183.248C609.205 183.068 609.121 182.876 609.109 182.672L609.091 181.988C608.671 182.528 608.125 182.948 607.453 183.248C606.781 183.536 606.097 183.68 605.401 183.68C604.801 183.68 604.255 183.554 603.763 183.302C603.283 183.038 602.905 182.69 602.629 182.258C602.365 181.814 602.233 181.328 602.233 180.8ZM608.515 181.52C608.647 181.352 608.749 181.19 608.821 181.034C608.893 180.878 608.929 180.74 608.929 180.62V179.252C608.521 179.096 608.095 178.976 607.651 178.892C607.219 178.808 606.781 178.766 606.337 178.766C605.461 178.766 604.753 178.94 604.213 179.288C603.673 179.636 603.403 180.11 603.403 180.71C603.403 181.058 603.493 181.388 603.673 181.7C603.853 182 604.117 182.252 604.465 182.456C604.813 182.648 605.221 182.744 605.689 182.744C606.277 182.744 606.823 182.63 607.327 182.402C607.843 182.174 608.239 181.88 608.515 181.52ZM626.747 183.5H625.523V178.262C625.523 177.17 625.349 176.366 625.001 175.85C624.653 175.334 624.137 175.076 623.453 175.076C622.745 175.076 622.109 175.328 621.545 175.832C620.993 176.336 620.603 176.984 620.375 177.776V183.5H619.151V178.262C619.151 177.158 618.983 176.354 618.647 175.85C618.311 175.334 617.795 175.076 617.099 175.076C616.403 175.076 615.773 175.322 615.209 175.814C614.645 176.306 614.249 176.954 614.021 177.758V183.5H612.797V174.122H613.913V176.246C614.309 175.514 614.813 174.95 615.425 174.554C616.049 174.158 616.739 173.96 617.495 173.96C618.275 173.96 618.905 174.182 619.385 174.626C619.865 175.07 620.159 175.652 620.267 176.372C620.699 175.58 621.215 174.98 621.815 174.572C622.427 174.164 623.117 173.96 623.885 173.96C624.413 173.96 624.857 174.056 625.217 174.248C625.589 174.44 625.883 174.716 626.099 175.076C626.327 175.424 626.489 175.85 626.585 176.354C626.693 176.846 626.747 177.398 626.747 178.01V183.5ZM633.388 183.68C632.716 183.68 632.092 183.554 631.516 183.302C630.94 183.038 630.442 182.684 630.022 182.24C629.602 181.784 629.272 181.262 629.032 180.674C628.804 180.086 628.69 179.456 628.69 178.784C628.69 177.908 628.888 177.104 629.284 176.372C629.692 175.64 630.25 175.058 630.958 174.626C631.666 174.182 632.47 173.96 633.37 173.96C634.294 173.96 635.098 174.182 635.782 174.626C636.478 175.07 637.024 175.658 637.42 176.39C637.816 177.11 638.014 177.902 638.014 178.766C638.014 178.862 638.014 178.958 638.014 179.054C638.014 179.138 638.008 179.204 637.996 179.252H629.968C630.028 179.924 630.214 180.524 630.526 181.052C630.85 181.568 631.264 181.982 631.768 182.294C632.284 182.594 632.842 182.744 633.442 182.744C634.054 182.744 634.63 182.588 635.17 182.276C635.722 181.964 636.106 181.556 636.322 181.052L637.384 181.34C637.192 181.784 636.898 182.186 636.502 182.546C636.106 182.906 635.638 183.188 635.098 183.392C634.57 183.584 634 183.68 633.388 183.68ZM629.932 178.37H636.862C636.814 177.686 636.628 177.086 636.304 176.57C635.992 176.054 635.578 175.652 635.062 175.364C634.558 175.064 634 174.914 633.388 174.914C632.776 174.914 632.218 175.064 631.714 175.364C631.21 175.652 630.796 176.06 630.472 176.588C630.16 177.104 629.98 177.698 629.932 178.37ZM651.465 174.122H652.671L648.639 183.5H647.577L645.615 178.838L643.671 183.5H642.609L638.577 174.122H639.765L643.185 182.24L644.913 178.01L643.329 174.14H644.427L645.615 177.182L646.821 174.14H647.901L646.335 178.01L648.063 182.24L651.465 174.122ZM657.979 183.68C657.307 183.68 656.683 183.554 656.107 183.302C655.543 183.038 655.051 182.684 654.631 182.24C654.223 181.784 653.905 181.268 653.677 180.692C653.449 180.104 653.335 179.486 653.335 178.838C653.335 178.166 653.449 177.542 653.677 176.966C653.905 176.378 654.229 175.862 654.649 175.418C655.069 174.962 655.561 174.608 656.125 174.356C656.701 174.092 657.325 173.96 657.997 173.96C658.669 173.96 659.287 174.092 659.851 174.356C660.415 174.608 660.907 174.962 661.327 175.418C661.747 175.862 662.071 176.378 662.299 176.966C662.527 177.542 662.641 178.166 662.641 178.838C662.641 179.486 662.527 180.104 662.299 180.692C662.071 181.268 661.747 181.784 661.327 182.24C660.919 182.684 660.427 183.038 659.851 183.302C659.287 183.554 658.663 183.68 657.979 183.68ZM654.577 178.856C654.577 179.552 654.727 180.188 655.027 180.764C655.339 181.328 655.753 181.778 656.269 182.114C656.785 182.438 657.355 182.6 657.979 182.6C658.603 182.6 659.173 182.432 659.689 182.096C660.205 181.76 660.619 181.304 660.931 180.728C661.243 180.14 661.399 179.504 661.399 178.82C661.399 178.124 661.243 177.488 660.931 176.912C660.619 176.336 660.205 175.88 659.689 175.544C659.173 175.208 658.603 175.04 657.979 175.04C657.355 175.04 656.785 175.214 656.269 175.562C655.765 175.91 655.357 176.372 655.045 176.948C654.733 177.512 654.577 178.148 654.577 178.856ZM669.368 175.202C668.552 175.226 667.832 175.454 667.208 175.886C666.596 176.318 666.164 176.912 665.912 177.668V183.5H664.688V174.122H665.84V176.372C666.164 175.712 666.59 175.178 667.118 174.77C667.658 174.362 668.228 174.134 668.828 174.086C668.948 174.074 669.05 174.068 669.134 174.068C669.23 174.068 669.308 174.074 669.368 174.086V175.202ZM677.695 183.5L674.221 178.694L672.223 180.566V183.5H670.999V170.36H672.223V179.252L677.533 174.14H678.883L675.049 177.974L679.027 183.5H677.695Z" fill="currentColor"/>
</g>
<defs>
<filter id="filter0_d_3223_6275" x="882.321" y="0" width="214" height="214" filterUnits="userSpaceOnUse" color-interpolation-filters="sRGB">
<feFlood flood-opacity="0" result="BackgroundImageFix"/>
<feColorMatrix in="SourceAlpha" type="matrix" values="0 0 0 0 0 0 0 0 0 0 0 0 0 0 0 0 0 0 127 0" result="hardAlpha"/>
<feOffset/>
<feGaussianBlur stdDeviation="12.5"/>
<feComposite in2="hardAlpha" operator="out"/>
<feColorMatrix type="matrix" values="0 0 0 0 0.364706 0 0 0 0 0.603922 0 0 0 0 0.937255 0 0 0 1 0"/>
<feBlend mode="normal" in2="BackgroundImageFix" result="effect1_dropShadow_3223_6275"/>
<feBlend mode="normal" in="SourceGraphic" in2="effect1_dropShadow_3223_6275" result="shape"/>
</filter>
<filter id="filter1_d_3223_6275" x="140.321" y="0" width="214" height="214" filterUnits="userSpaceOnUse" color-interpolation-filters="sRGB">
<feFlood flood-opacity="0" result="BackgroundImageFix"/>
<feColorMatrix in="SourceAlpha" type="matrix" values="0 0 0 0 0 0 0 0 0 0 0 0 0 0 0 0 0 0 127 0" result="hardAlpha"/>
<feOffset/>
<feGaussianBlur stdDeviation="12.5"/>
<feComposite in2="hardAlpha" operator="out"/>
<feColorMatrix type="matrix" values="0 0 0 0 0.364706 0 0 0 0 0.603922 0 0 0 0 0.937255 0 0 0 1 0"/>
<feBlend mode="normal" in2="BackgroundImageFix" result="effect1_dropShadow_3223_6275"/>
<feBlend mode="normal" in="SourceGraphic" in2="effect1_dropShadow_3223_6275" result="shape"/>
</filter>
<filter id="filter2_d_3223_6275" x="508.321" y="73" width="220" height="68" filterUnits="userSpaceOnUse" color-interpolation-filters="sRGB">
<feFlood flood-opacity="0" result="BackgroundImageFix"/>
<feColorMatrix in="SourceAlpha" type="matrix" values="0 0 0 0 0 0 0 0 0 0 0 0 0 0 0 0 0 0 127 0" result="hardAlpha"/>
<feOffset/>
<feGaussianBlur stdDeviation="5"/>
<feComposite in2="hardAlpha" operator="out"/>
<feColorMatrix type="matrix" values="0 0 0 0 0.364706 0 0 0 0 0.603922 0 0 0 0 0.937255 0 0 0 1 0"/>
<feBlend mode="normal" in2="BackgroundImageFix" result="effect1_dropShadow_3223_6275"/>
<feBlend mode="normal" in="SourceGraphic" in2="effect1_dropShadow_3223_6275" result="shape"/>
</filter>
<filter id="filter3_d_3223_6275" x="508.321" y="3" width="220" height="68" filterUnits="userSpaceOnUse" color-interpolation-filters="sRGB">
<feFlood flood-opacity="0" result="BackgroundImageFix"/>
<feColorMatrix in="SourceAlpha" type="matrix" values="0 0 0 0 0 0 0 0 0 0 0 0 0 0 0 0 0 0 127 0" result="hardAlpha"/>
<feOffset/>
<feGaussianBlur stdDeviation="5"/>
<feComposite in2="hardAlpha" operator="out"/>
<feColorMatrix type="matrix" values="0 0 0 0 0.364706 0 0 0 0 0.603922 0 0 0 0 0.937255 0 0 0 1 0"/>
<feBlend mode="normal" in2="BackgroundImageFix" result="effect1_dropShadow_3223_6275"/>
<feBlend mode="normal" in="SourceGraphic" in2="effect1_dropShadow_3223_6275" result="shape"/>
</filter>
<filter id="filter4_d_3223_6275" x="508.321" y="143" width="220" height="68" filterUnits="userSpaceOnUse" color-interpolation-filters="sRGB">
<feFlood flood-opacity="0" result="BackgroundImageFix"/>
<feColorMatrix in="SourceAlpha" type="matrix" values="0 0 0 0 0 0 0 0 0 0 0 0 0 0 0 0 0 0 127 0" result="hardAlpha"/>
<feOffset/>
<feGaussianBlur stdDeviation="5"/>
<feComposite in2="hardAlpha" operator="out"/>
<feColorMatrix type="matrix" values="0 0 0 0 0.364706 0 0 0 0 0.603922 0 0 0 0 0.937255 0 0 0 1 0"/>
<feBlend mode="normal" in2="BackgroundImageFix" result="effect1_dropShadow_3223_6275"/>
<feBlend mode="normal" in="SourceGraphic" in2="effect1_dropShadow_3223_6275" result="shape"/>
</filter>
<linearGradient id="paint0_linear_3223_6275" x1="1.32141" y1="107.178" x2="1235.46" y2="107.178" gradientUnits="userSpaceOnUse">
<stop stop-color="#8FAEDA" stop-opacity="0"/>
<stop offset="0.5" stop-color="#8FAEDA"/>
<stop offset="1" stop-color="#8FAEDA" stop-opacity="0"/>
</linearGradient>
<linearGradient id="paint1_linear_3223_6275" x1="1.32141" y1="151.249" x2="1235.46" y2="151.249" gradientUnits="userSpaceOnUse">
<stop stop-color="#8FAEDA" stop-opacity="0"/>
<stop offset="0.5" stop-color="#8FAEDA"/>
<stop offset="1" stop-color="#8FAEDA" stop-opacity="0"/>
</linearGradient>
<linearGradient id="paint2_linear_3223_6275" x1="1.32141" y1="62.417" x2="1235.46" y2="62.417" gradientUnits="userSpaceOnUse">
<stop stop-color="#8FAEDA" stop-opacity="0"/>
<stop offset="0.5" stop-color="#8FAEDA"/>
<stop offset="1" stop-color="#8FAEDA" stop-opacity="0"/>
</linearGradient>
</defs>
</svg>
