<svg width="100%" height="100%" viewBox="0 0 1920 1081" version="1.1" xmlns="http://www.w3.org/2000/svg" xmlns:xlink="http://www.w3.org/1999/xlink" xml:space="preserve" xmlns:serif="http://www.serif.com/" style="fill-rule:evenodd;clip-rule:evenodd;stroke-linecap:square;stroke-linejoin:bevel;stroke-miterlimit:1.5;">
    <g transform="matrix(1,0,0,1,0,-4893)">
        <g id="cmsbuilder_dark" transform="matrix(1,0,0,1,0,4893.15)">
            <rect x="0" y="0" width="1920" height="1080" style="fill:none;"/>
            <g transform="matrix(1,0,0,1,475.688,367.968)">
                <g transform="matrix(4.26126,0,0,2.55829,-19345.5,-556.225)">
                    <path d="M4820,162.6L4820,443.4C4820,452.01 4815.8,459 4810.63,459L4496.37,459C4491.2,459 4487,452.01 4487,443.4L4487,162.6C4487,153.99 4491.2,147 4496.37,147L4810.63,147C4815.8,147 4820,153.99 4820,162.6Z" style="fill:rgb(25,27,38);"/>
                    <clipPath id="_clip1">
                        <path d="M4820,162.6L4820,443.4C4820,452.01 4815.8,459 4810.63,459L4496.37,459C4491.2,459 4487,452.01 4487,443.4L4487,162.6C4487,153.99 4491.2,147 4496.37,147L4810.63,147C4815.8,147 4820,153.99 4820,162.6Z"/>
                    </clipPath>
                    <g clip-path="url(#_clip1)">
                        <g transform="matrix(0.439605,0,0,1.75281,2543.5,-506.798)">
                            <rect x="4421" y="373" width="143" height="178" style="fill:rgb(22,22,30);"/>
                            <path d="M4564,373L4564,551L4421,551L4421,373L4564,373ZM4562.93,373.446L4422.07,373.446L4422.07,550.554L4562.93,550.554L4562.93,373.446Z" style="fill:rgb(16,16,16);"/>
                        </g>
                        <g transform="matrix(2.78381,0,0,0.292317,2785.88,116.259)">
                            <path d="M626,165.918C626,172.034 625.687,177 625.301,177L619.699,177C619.313,177 619,172.034 619,165.918C619,159.802 619.313,154.836 619.699,154.836L625.301,154.836C625.687,154.836 626,159.802 626,165.918Z" style="fill:rgb(32,34,45);"/>
                        </g>
                        <g transform="matrix(3.15406,0,0,0.292317,2542.82,156.028)">
                            <path d="M626,165.918C626,172.034 625.724,177 625.383,177L619.617,177C619.276,177 619,172.034 619,165.918C619,159.802 619.276,154.836 619.617,154.836L625.383,154.836C625.724,154.836 626,159.802 626,165.918Z" style="fill:rgb(32,34,45);"/>
                        </g>
                        <g transform="matrix(4.26037,0,0,0.292317,1861.77,196.429)">
                            <path d="M626,165.918C626,172.034 625.795,177 625.544,177L619.456,177C619.205,177 619,172.034 619,165.918C619,159.802 619.205,154.836 619.456,154.836L625.544,154.836C625.795,154.836 626,159.802 626,165.918Z" style="fill:rgb(32,34,45);"/>
                        </g>
                        <g transform="matrix(2.91939,0,0,0.292317,2688.08,168.221)">
                            <path d="M626,165.918C626,172.034 625.701,177 625.334,177L619.666,177C619.299,177 619,172.034 619,165.918C619,159.802 619.299,154.836 619.666,154.836L625.334,154.836C625.701,154.836 626,159.802 626,165.918Z" style="fill:rgb(32,34,45);"/>
                        </g>
                        <g transform="matrix(3.15406,0,0,0.292317,2546.58,208.622)">
                            <path d="M626,165.918C626,172.034 625.724,177 625.383,177L619.617,177C619.276,177 619,172.034 619,165.918C619,159.802 619.276,154.836 619.617,154.836L625.383,154.836C625.724,154.836 626,159.802 626,165.918Z" style="fill:rgb(32,34,45);"/>
                        </g>
                        <g transform="matrix(3.15406,0,0,0.292317,2546.58,261.904)">
                            <path d="M626,165.918C626,172.034 625.724,177 625.383,177L619.617,177C619.276,177 619,172.034 619,165.918C619,159.802 619.276,154.836 619.617,154.836L625.383,154.836C625.724,154.836 626,159.802 626,165.918Z" style="fill:rgb(32,34,45);"/>
                        </g>
                        <g transform="matrix(3.6234,0,0,0.292317,2258.95,272.463)">
                            <path d="M626,165.918C626,172.034 625.759,177 625.463,177L619.537,177C619.241,177 619,172.034 619,165.918C619,159.802 619.241,154.836 619.537,154.836L625.463,154.836C625.759,154.836 626,159.802 626,165.918Z" style="fill:rgb(32,34,45);"/>
                        </g>
                        <g transform="matrix(3.32168,0,0,0.292317,2445.72,282.842)">
                            <path d="M626,165.918C626,172.034 625.738,177 625.414,177L619.586,177C619.262,177 619,172.034 619,165.918C619,159.802 619.262,154.836 619.586,154.836L625.414,154.836C625.738,154.836 626,159.802 626,165.918Z" style="fill:rgb(32,34,45);"/>
                        </g>
                        <g transform="matrix(3.79103,0,0,0.292317,2155.19,293.222)">
                            <path d="M626,165.918C626,172.034 625.77,177 625.487,177L619.513,177C619.23,177 619,172.034 619,165.918C619,159.802 619.23,154.836 619.513,154.836L625.487,154.836C625.77,154.836 626,159.802 626,165.918Z" style="fill:rgb(32,34,45);"/>
                        </g>
                        <g transform="matrix(3.45578,0,0,0.292317,2359.81,221.203)">
                            <path d="M626,165.918C626,172.034 625.748,177 625.437,177L619.563,177C619.252,177 619,172.034 619,165.918C619,159.802 619.252,154.836 619.563,154.836L625.437,154.836C625.748,154.836 626,159.802 626,165.918Z" style="fill:rgb(32,34,45);"/>
                        </g>
                        <g transform="matrix(3.45578,0,0,0.292317,2359.81,305.364)">
                            <path d="M626,165.918C626,172.034 625.748,177 625.437,177L619.563,177C619.252,177 619,172.034 619,165.918C619,159.802 619.252,154.836 619.563,154.836L625.437,154.836C625.748,154.836 626,159.802 626,165.918Z" style="fill:rgb(32,34,45);"/>
                        </g>
                        <g transform="matrix(3.45578,0,0,0.292317,2359.81,316.549)">
                            <path d="M626,165.918C626,172.034 625.748,177 625.437,177L619.563,177C619.252,177 619,172.034 619,165.918C619,159.802 619.252,154.836 619.563,154.836L625.437,154.836C625.748,154.836 626,159.802 626,165.918Z" style="fill:rgb(32,34,45);"/>
                        </g>
                        <g transform="matrix(3.45578,0,0,0.292317,2359.81,327.734)">
                            <path d="M626,165.918C626,172.034 625.748,177 625.437,177L619.563,177C619.252,177 619,172.034 619,165.918C619,159.802 619.252,154.836 619.563,154.836L625.437,154.836C625.748,154.836 626,159.802 626,165.918Z" style="fill:rgb(32,34,45);"/>
                        </g>
                        <g transform="matrix(2.04627,0,0,0.214871,3242.42,136.575)">
                            <path d="M626,165.918C626,172.034 625.687,177 625.301,177L619.699,177C619.313,177 619,172.034 619,165.918C619,159.802 619.313,154.836 619.699,154.836L625.301,154.836C625.687,154.836 626,159.802 626,165.918Z" style="fill:rgb(32,34,45);"/>
                        </g>
                        <g transform="matrix(2.04627,0,0,0.214871,3228.55,157.365)">
                            <path d="M626,165.918C626,172.034 625.687,177 625.301,177L619.699,177C619.313,177 619,172.034 619,165.918C619,159.802 619.313,154.836 619.699,154.836L625.301,154.836C625.687,154.836 626,159.802 626,165.918Z" style="fill:rgb(233,233,233);"/>
                        </g>
                        <g transform="matrix(2.04627,0,0,0.214871,3228.55,197.767)">
                            <path d="M626,165.918C626,172.034 625.687,177 625.301,177L619.699,177C619.313,177 619,172.034 619,165.918C619,159.802 619.313,154.836 619.699,154.836L625.301,154.836C625.687,154.836 626,159.802 626,165.918Z" style="fill:rgb(233,233,233);"/>
                        </g>
                        <g transform="matrix(2.04627,0,0,0.214871,3228.55,251.048)">
                            <path d="M626,165.918C626,172.034 625.687,177 625.301,177L619.699,177C619.313,177 619,172.034 619,165.918C619,159.802 619.313,154.836 619.699,154.836L625.301,154.836C625.687,154.836 626,159.802 626,165.918Z" style="fill:rgb(233,233,233);"/>
                        </g>
                        <g transform="matrix(4.05774,0,0,0.214871,1990.81,408.742)">
                            <path d="M626,165.918C626,172.034 625.842,177 625.648,177L619.352,177C619.158,177 619,172.034 619,165.918C619,159.802 619.158,154.836 619.352,154.836L625.648,154.836C625.842,154.836 626,159.802 626,165.918Z" style="fill:rgb(32,34,45);"/>
                        </g>
                        <g transform="matrix(0.234672,0,0,0.390886,3478.12,75.9321)">
                            <path d="M4378,224.278L4378,246.093C4378,252.113 4373.11,257 4367.09,257L4344.91,257C4338.89,257 4334,252.113 4334,246.093L4334,224.278C4334,218.258 4338.89,213.371 4344.91,213.371L4367.09,213.371C4373.11,213.371 4378,218.258 4378,224.278Z" style="fill:rgb(233,233,233);"/>
                        </g>
                        <g transform="matrix(-0.0934794,-1.90684e-17,1.14479e-17,-0.155705,4556.4,181.674)">
                            <path d="M124,100L134.365,110.365L145.235,99.495" style="fill:none;stroke:rgb(233,233,233);stroke-width:5.02px;"/>
                        </g>
                        <g transform="matrix(0.0934794,3.81368e-17,-2.28959e-17,0.155705,4531.23,153.833)">
                            <path d="M124,100L134.365,110.365L145.235,99.495" style="fill:none;stroke:rgb(233,233,233);stroke-width:5.02px;"/>
                        </g>
                        <g transform="matrix(2.86198e-17,-0.155705,0.0934794,4.76711e-17,4486.93,265.891)">
                            <path d="M124,100L134.365,110.365L145.235,99.495" style="fill:none;stroke:rgb(233,233,233);stroke-width:5.02px;"/>
                        </g>
                        <g transform="matrix(2.86198e-17,-0.155705,0.0934794,4.76711e-17,4486.93,278.084)">
                            <path d="M124,100L134.365,110.365L145.235,99.495" style="fill:none;stroke:rgb(233,233,233);stroke-width:5.02px;"/>
                        </g>
                        <g transform="matrix(0.0934794,3.56328e-18,-2.13925e-18,0.155705,4484.15,294.066)">
                            <path d="M124,100L134.365,110.365L145.235,99.495" style="fill:none;stroke:rgb(233,233,233);stroke-width:5.02px;"/>
                        </g>
                        <g transform="matrix(2.86198e-17,-0.155705,0.0934794,4.76711e-17,4486.93,290.664)">
                            <path d="M124,100L134.365,110.365L145.235,99.495" style="fill:none;stroke:rgb(233,233,233);stroke-width:5.02px;"/>
                        </g>
                        <g transform="matrix(2.86198e-17,-0.155705,0.0934794,4.76711e-17,4486.93,374.825)">
                            <path d="M124,100L134.365,110.365L145.235,99.495" style="fill:none;stroke:rgb(233,233,233);stroke-width:5.02px;"/>
                        </g>
                        <g transform="matrix(2.86198e-17,-0.155705,0.0934794,4.76711e-17,4486.93,386.01)">
                            <path d="M124,100L134.365,110.365L145.235,99.495" style="fill:none;stroke:rgb(233,233,233);stroke-width:5.02px;"/>
                        </g>
                        <g transform="matrix(2.86198e-17,-0.155705,0.0934794,4.76711e-17,4486.93,397.196)">
                            <path d="M124,100L134.365,110.365L145.235,99.495" style="fill:none;stroke:rgb(233,233,233);stroke-width:5.02px;"/>
                        </g>
                        <g transform="matrix(0.146983,0,0,0.244825,4727.33,198.306)">
                            <path d="M-1572.19,1017.33C-1575.74,1014.4 -1578,1009.96 -1578,1005C-1578,996.169 -1570.83,989 -1562,989C-1553.17,989 -1546,996.169 -1546,1005C-1546,1009.96 -1548.26,1014.4 -1551.81,1017.33C-1552.49,1017.89 -1553.21,1018.4 -1553.98,1018.84C-1556.34,1020.21 -1559.08,1021 -1562,1021C-1564.92,1021 -1567.66,1020.21 -1570.02,1018.84C-1570.79,1018.4 -1571.51,1017.89 -1572.19,1017.33ZM-1552.08,1014.87C-1549.56,1012.34 -1548,1008.85 -1548,1005C-1548,997.273 -1554.27,991 -1562,991C-1569.73,991 -1576,997.273 -1576,1005C-1576,1008.85 -1574.44,1012.34 -1571.92,1014.87C-1571.18,1011.67 -1568.91,1009.04 -1565.93,1007.79C-1567.79,1006.53 -1569,1004.4 -1569,1002C-1569,998.137 -1565.86,995 -1562,995C-1558.14,995 -1555,998.137 -1555,1002C-1555,1004.4 -1556.22,1006.53 -1558.07,1007.79C-1555.09,1009.04 -1552.82,1011.67 -1552.08,1014.87ZM-1570.15,1016.38C-1567.85,1018.03 -1565.04,1019 -1562,1019C-1558.96,1019 -1556.15,1018.03 -1553.85,1016.38C-1554.26,1012.24 -1557.75,1009 -1562,1009C-1566.25,1009 -1569.74,1012.24 -1570.15,1016.38ZM-1562,1007C-1559.24,1007 -1557,1004.76 -1557,1002C-1557,999.24 -1559.24,997 -1562,997C-1564.76,997 -1567,999.24 -1567,1002C-1567,1004.76 -1564.76,1007 -1562,1007Z" style="fill:rgb(32,34,45);"/>
                        </g>
                        <g transform="matrix(0.234672,0,0,0.390886,3478.82,73.5868)">
                            <path d="M4525,564.036L4525,582.87C4525,585.098 4523.19,586.906 4520.96,586.906L4337.04,586.906C4334.81,586.906 4333,585.098 4333,582.87L4333,564.036C4333,561.808 4334.81,560 4337.04,560L4520.96,560C4523.19,560 4525,561.808 4525,564.036Z" style="fill:rgb(25,27,38);"/>
                        </g>
                        <g transform="matrix(4.26037,0,0,0.292317,1861.77,249.241)">
                            <path d="M626,165.918C626,172.034 625.795,177 625.544,177L619.456,177C619.205,177 619,172.034 619,165.918C619,159.802 619.205,154.836 619.456,154.836L625.544,154.836C625.795,154.836 626,159.802 626,165.918Z" style="fill:rgb(32,34,45);"/>
                        </g>
                        <g transform="matrix(0.234672,0,0,0.390886,3478.82,73.5868)">
                            <path d="M4950,327L4950,479C4950,489.486 4941.49,498 4931,498L4613,498C4602.51,498 4594,489.486 4594,479L4594,327C4594,316.514 4602.51,308 4613,308L4931,308C4941.49,308 4950,316.514 4950,327Z" style="fill:rgb(22,22,30);stroke:rgb(78,85,121);stroke-width:2px;stroke-dasharray:2,6,2,0,0,0;"/>
                        </g>
                        <g transform="matrix(0.715882,0,0,0.824974,1268.14,35.8814)">
                            <path d="M4950,327L4950,479C4950,489.486 4944.11,498 4936.86,498L4607.15,498C4599.89,498 4594,489.486 4594,479L4594,327C4594,316.514 4599.89,308 4607.15,308L4936.86,308C4944.11,308 4950,316.514 4950,327Z" style="fill:rgb(22,22,30);stroke:rgb(78,85,121);stroke-width:0.76px;stroke-dasharray:0.76,2.29,0.76,0,0,0;"/>
                        </g>
                        <g transform="matrix(0.234672,0,0,0.390886,4430.02,78.082)">
                            <g transform="matrix(1,0,0,1,-2213,-191)">
                                <path d="M3256.5,499C3302.59,499 3340,536.415 3340,582.5C3340,628.585 3302.59,666 3256.5,666C3210.41,666 3173,628.585 3173,582.5C3173,536.415 3210.41,499 3256.5,499ZM3256.5,540.75C3279.54,540.75 3298.25,559.458 3298.25,582.5C3298.25,605.542 3279.54,624.25 3256.5,624.25C3233.46,624.25 3214.75,605.542 3214.75,582.5C3214.75,559.458 3233.46,540.75 3256.5,540.75Z" style="fill:rgb(32,34,45);"/>
                            </g>
                            <g transform="matrix(1,0,0,1,-2213,-191)">
                                <path d="M3221.99,658.533L3239.24,620.517C3244.66,622.977 3250.55,624.25 3256.5,624.25L3256.5,666C3244.6,666 3232.83,663.454 3221.99,658.533Z" style="fill:rgb(158,206,106);"/>
                            </g>
                            <g transform="matrix(1,0,0,1,-2213,-191)">
                                <path d="M3183.95,623.836L3220.22,603.168C3224.6,610.847 3231.3,616.939 3239.36,620.568L3222.21,658.636C3206.1,651.378 3192.7,639.193 3183.95,623.836Z" style="fill:rgb(122,162,247);"/>
                            </g>
                            <g transform="matrix(15.8625,0,0,1,-8681.05,178.688)">
                                <path d="M626,165.918C626,172.034 625.687,177 625.301,177L619.699,177C619.313,177 619,172.034 619,165.918C619,159.802 619.313,154.836 619.699,154.836L625.301,154.836C625.687,154.836 626,159.802 626,165.918Z" style="fill:rgb(216,219,232);"/>
                            </g>
                            <g transform="matrix(7.62177,0,0,1,-3580.01,210.402)">
                                <path d="M626,165.918C626,172.034 625.348,177 624.546,177L620.454,177C619.652,177 619,172.034 619,165.918C619,159.802 619.652,154.836 620.454,154.836L624.546,154.836C625.348,154.836 626,159.802 626,165.918Z" style="fill:rgb(78,85,121);"/>
                            </g>
                        </g>
                        <g transform="matrix(0.234672,0,0,0.390886,4428.21,78.082)">
                            <g transform="matrix(1,0,0,1,-1853.09,-191)">
                                <path d="M3256.5,499C3302.59,499 3340,536.415 3340,582.5C3340,628.585 3302.59,666 3256.5,666C3210.41,666 3173,628.585 3173,582.5C3173,536.415 3210.41,499 3256.5,499ZM3256.5,540.75C3279.54,540.75 3298.25,559.458 3298.25,582.5C3298.25,605.542 3279.54,624.25 3256.5,624.25C3233.46,624.25 3214.75,605.542 3214.75,582.5C3214.75,559.458 3233.46,540.75 3256.5,540.75Z" style="fill:rgb(32,34,45);"/>
                            </g>
                            <g transform="matrix(1,0,0,1,-1853.09,-191)">
                                <path d="M3221.99,658.533L3239.24,620.517C3244.66,622.977 3250.55,624.25 3256.5,624.25L3256.5,666C3244.6,666 3232.83,663.454 3221.99,658.533Z" style="fill:rgb(158,206,106);"/>
                            </g>
                            <g transform="matrix(15.8625,0,0,1,-8321.13,178.688)">
                                <path d="M626,165.918C626,172.034 625.687,177 625.301,177L619.699,177C619.313,177 619,172.034 619,165.918C619,159.802 619.313,154.836 619.699,154.836L625.301,154.836C625.687,154.836 626,159.802 626,165.918Z" style="fill:rgb(216,219,232);"/>
                            </g>
                            <g transform="matrix(7.62177,0,0,1,-3220.1,212.402)">
                                <path d="M626,165.918C626,172.034 625.348,177 624.546,177L620.454,177C619.652,177 619,172.034 619,165.918C619,159.802 619.652,154.836 620.454,154.836L624.546,154.836C625.348,154.836 626,159.802 626,165.918Z" style="fill:rgb(78,85,121);"/>
                            </g>
                        </g>
                    </g>
                    <path d="M4820,162.6L4820,443.4C4820,452.01 4815.8,459 4810.63,459L4496.37,459C4491.2,459 4487,452.01 4487,443.4L4487,162.6C4487,153.99 4491.2,147 4496.37,147L4810.63,147C4815.8,147 4820,153.99 4820,162.6ZM4819.53,162.6C4819.53,154.422 4815.54,147.782 4810.63,147.782L4496.37,147.782C4491.46,147.782 4487.47,154.422 4487.47,162.6L4487.47,443.4C4487.47,451.578 4491.46,458.218 4496.37,458.218L4810.63,458.218C4815.54,458.218 4819.53,451.578 4819.53,443.4L4819.53,162.6Z" style="fill:rgb(16,16,16);"/>
                </g>
                <g transform="matrix(3.05056,0,0,2.11053,-13689.6,-385.43)">
                    <path d="M4950,327L4950,479C4950,489.486 4944.11,498 4936.86,498L4607.15,498C4599.89,498 4594,489.486 4594,479L4594,327C4594,316.514 4599.89,308 4607.15,308L4936.86,308C4944.11,308 4950,316.514 4950,327Z" style="fill:rgb(22,22,30);"/>
                    <clipPath id="_clip2">
                        <path d="M4950,327L4950,479C4950,489.486 4944.11,498 4936.86,498L4607.15,498C4599.89,498 4594,489.486 4594,479L4594,327C4594,316.514 4599.89,308 4607.15,308L4936.86,308C4944.11,308 4950,316.514 4950,327Z"/>
                    </clipPath>
                    <g clip-path="url(#_clip2)">
                        <g transform="matrix(0.327808,0,0,0.525975,3058.22,-24.7218)">
                            <rect x="4685" y="632.581" width="1086" height="45.419" style="fill:rgb(25,27,38);"/>
                        </g>
                        <g transform="matrix(8.96231,0,0,0.325928,-942.051,265.868)">
                            <path d="M626,165.918C626,172.034 625.875,177 625.721,177L619.279,177C619.125,177 619,172.034 619,165.918C619,159.802 619.125,154.836 619.279,154.836L625.721,154.836C625.875,154.836 626,159.802 626,165.918Z" style="fill:rgb(122,162,247);"/>
                        </g>
                        <g transform="matrix(8.96231,0,0,0.325928,-942.051,294.99)">
                            <path d="M626,165.918C626,172.034 625.875,177 625.721,177L619.279,177C619.125,177 619,172.034 619,165.918C619,159.802 619.125,154.836 619.279,154.836L625.721,154.836C625.875,154.836 626,159.802 626,165.918Z" style="fill:rgb(168,177,214);"/>
                        </g>
                        <g transform="matrix(8.96231,0,0,0.325928,-942.051,324.112)">
                            <path d="M626,165.918C626,172.034 625.875,177 625.721,177L619.279,177C619.125,177 619,172.034 619,165.918C619,159.802 619.125,154.836 619.279,154.836L625.721,154.836C625.875,154.836 626,159.802 626,165.918Z" style="fill:rgb(168,177,214);"/>
                        </g>
                        <g transform="matrix(8.96231,0,0,0.325928,-942.051,353.235)">
                            <path d="M626,165.918C626,172.034 625.875,177 625.721,177L619.279,177C619.125,177 619,172.034 619,165.918C619,159.802 619.125,154.836 619.279,154.836L625.721,154.836C625.875,154.836 626,159.802 626,165.918Z" style="fill:rgb(168,177,214);"/>
                        </g>
                        <g transform="matrix(8.96231,0,0,0.325928,-942.051,382.357)">
                            <path d="M626,165.918C626,172.034 625.875,177 625.721,177L619.279,177C619.125,177 619,172.034 619,165.918C619,159.802 619.125,154.836 619.279,154.836L625.721,154.836C625.875,154.836 626,159.802 626,165.918Z" style="fill:rgb(168,177,214);"/>
                        </g>
                        <g transform="matrix(8.96231,0,0,0.325928,-942.051,411.48)">
                            <path d="M626,165.918C626,172.034 625.875,177 625.721,177L619.279,177C619.125,177 619,172.034 619,165.918C619,159.802 619.125,154.836 619.279,154.836L625.721,154.836C625.875,154.836 626,159.802 626,165.918Z" style="fill:rgb(168,177,214);"/>
                        </g>
                        <g transform="matrix(4.88812,0,0,0.325928,1680.25,265.868)">
                            <path d="M626,165.918C626,172.034 625.771,177 625.489,177L619.511,177C619.229,177 619,172.034 619,165.918C619,159.802 619.229,154.836 619.511,154.836L625.489,154.836C625.771,154.836 626,159.802 626,165.918Z" style="fill:rgb(78,85,121);"/>
                        </g>
                        <g transform="matrix(4.88812,0,0,0.325928,1680.25,294.99)">
                            <path d="M626,165.918C626,172.034 625.771,177 625.489,177L619.511,177C619.229,177 619,172.034 619,165.918C619,159.802 619.229,154.836 619.511,154.836L625.489,154.836C625.771,154.836 626,159.802 626,165.918Z" style="fill:rgb(25,27,38);"/>
                        </g>
                        <g transform="matrix(4.88812,0,0,0.325928,1680.25,324.112)">
                            <path d="M626,165.918C626,172.034 625.771,177 625.489,177L619.511,177C619.229,177 619,172.034 619,165.918C619,159.802 619.229,154.836 619.511,154.836L625.489,154.836C625.771,154.836 626,159.802 626,165.918Z" style="fill:rgb(25,27,38);"/>
                        </g>
                        <g transform="matrix(4.88812,0,0,0.325928,1680.25,353.235)">
                            <path d="M626,165.918C626,172.034 625.771,177 625.489,177L619.511,177C619.229,177 619,172.034 619,165.918C619,159.802 619.229,154.836 619.511,154.836L625.489,154.836C625.771,154.836 626,159.802 626,165.918Z" style="fill:rgb(25,27,38);"/>
                        </g>
                        <g transform="matrix(4.88812,0,0,0.325928,1680.25,382.357)">
                            <path d="M626,165.918C626,172.034 625.771,177 625.489,177L619.511,177C619.229,177 619,172.034 619,165.918C619,159.802 619.229,154.836 619.511,154.836L625.489,154.836C625.771,154.836 626,159.802 626,165.918Z" style="fill:rgb(25,27,38);"/>
                        </g>
                        <g transform="matrix(4.88812,0,0,0.325928,1680.25,411.48)">
                            <path d="M626,165.918C626,172.034 625.771,177 625.489,177L619.511,177C619.229,177 619,172.034 619,165.918C619,159.802 619.229,154.836 619.511,154.836L625.489,154.836C625.771,154.836 626,159.802 626,165.918Z" style="fill:rgb(25,27,38);"/>
                        </g>
                        <g transform="matrix(4.88812,0,0,0.325928,1726.67,265.868)">
                            <path d="M626,165.918C626,172.034 625.771,177 625.489,177L619.511,177C619.229,177 619,172.034 619,165.918C619,159.802 619.229,154.836 619.511,154.836L625.489,154.836C625.771,154.836 626,159.802 626,165.918Z" style="fill:rgb(78,85,121);"/>
                        </g>
                        <g transform="matrix(4.88812,0,0,0.325928,1726.67,294.99)">
                            <path d="M626,165.918C626,172.034 625.771,177 625.489,177L619.511,177C619.229,177 619,172.034 619,165.918C619,159.802 619.229,154.836 619.511,154.836L625.489,154.836C625.771,154.836 626,159.802 626,165.918Z" style="fill:rgb(25,27,38);"/>
                        </g>
                        <g transform="matrix(4.88812,0,0,0.325928,1726.67,324.112)">
                            <path d="M626,165.918C626,172.034 625.771,177 625.489,177L619.511,177C619.229,177 619,172.034 619,165.918C619,159.802 619.229,154.836 619.511,154.836L625.489,154.836C625.771,154.836 626,159.802 626,165.918Z" style="fill:rgb(25,27,38);"/>
                        </g>
                        <g transform="matrix(4.88812,0,0,0.325928,1726.67,353.235)">
                            <path d="M626,165.918C626,172.034 625.771,177 625.489,177L619.511,177C619.229,177 619,172.034 619,165.918C619,159.802 619.229,154.836 619.511,154.836L625.489,154.836C625.771,154.836 626,159.802 626,165.918Z" style="fill:rgb(25,27,38);"/>
                        </g>
                        <g transform="matrix(4.88812,0,0,0.325928,1726.67,382.357)">
                            <path d="M626,165.918C626,172.034 625.771,177 625.489,177L619.511,177C619.229,177 619,172.034 619,165.918C619,159.802 619.229,154.836 619.511,154.836L625.489,154.836C625.771,154.836 626,159.802 626,165.918Z" style="fill:rgb(25,27,38);"/>
                        </g>
                        <g transform="matrix(4.88812,0,0,0.325928,1726.67,411.48)">
                            <path d="M626,165.918C626,172.034 625.771,177 625.489,177L619.511,177C619.229,177 619,172.034 619,165.918C619,159.802 619.229,154.836 619.511,154.836L625.489,154.836C625.771,154.836 626,159.802 626,165.918Z" style="fill:rgb(25,27,38);"/>
                        </g>
                        <g transform="matrix(4.88812,0,0,0.325928,1773.08,265.868)">
                            <path d="M626,165.918C626,172.034 625.771,177 625.489,177L619.511,177C619.229,177 619,172.034 619,165.918C619,159.802 619.229,154.836 619.511,154.836L625.489,154.836C625.771,154.836 626,159.802 626,165.918Z" style="fill:rgb(78,85,121);"/>
                        </g>
                        <g transform="matrix(4.88812,0,0,0.325928,1773.08,294.99)">
                            <path d="M626,165.918C626,172.034 625.771,177 625.489,177L619.511,177C619.229,177 619,172.034 619,165.918C619,159.802 619.229,154.836 619.511,154.836L625.489,154.836C625.771,154.836 626,159.802 626,165.918Z" style="fill:rgb(25,27,38);"/>
                        </g>
                        <g transform="matrix(4.88812,0,0,0.325928,1773.08,324.112)">
                            <path d="M626,165.918C626,172.034 625.771,177 625.489,177L619.511,177C619.229,177 619,172.034 619,165.918C619,159.802 619.229,154.836 619.511,154.836L625.489,154.836C625.771,154.836 626,159.802 626,165.918Z" style="fill:rgb(25,27,38);"/>
                        </g>
                        <g transform="matrix(4.88812,0,0,0.325928,1773.08,353.235)">
                            <path d="M626,165.918C626,172.034 625.771,177 625.489,177L619.511,177C619.229,177 619,172.034 619,165.918C619,159.802 619.229,154.836 619.511,154.836L625.489,154.836C625.771,154.836 626,159.802 626,165.918Z" style="fill:rgb(25,27,38);"/>
                        </g>
                        <g transform="matrix(4.88812,0,0,0.325928,1773.08,382.357)">
                            <path d="M626,165.918C626,172.034 625.771,177 625.489,177L619.511,177C619.229,177 619,172.034 619,165.918C619,159.802 619.229,154.836 619.511,154.836L625.489,154.836C625.771,154.836 626,159.802 626,165.918Z" style="fill:rgb(25,27,38);"/>
                        </g>
                        <g transform="matrix(4.88812,0,0,0.325928,1773.08,411.48)">
                            <path d="M626,165.918C626,172.034 625.771,177 625.489,177L619.511,177C619.229,177 619,172.034 619,165.918C619,159.802 619.229,154.836 619.511,154.836L625.489,154.836C625.771,154.836 626,159.802 626,165.918Z" style="fill:rgb(25,27,38);"/>
                        </g>
                        <g transform="matrix(4.88812,0,0,0.325928,1819.49,265.868)">
                            <path d="M626,165.918C626,172.034 625.771,177 625.489,177L619.511,177C619.229,177 619,172.034 619,165.918C619,159.802 619.229,154.836 619.511,154.836L625.489,154.836C625.771,154.836 626,159.802 626,165.918Z" style="fill:rgb(78,85,121);"/>
                        </g>
                        <g transform="matrix(4.88812,0,0,0.325928,1819.49,294.99)">
                            <path d="M626,165.918C626,172.034 625.771,177 625.489,177L619.511,177C619.229,177 619,172.034 619,165.918C619,159.802 619.229,154.836 619.511,154.836L625.489,154.836C625.771,154.836 626,159.802 626,165.918Z" style="fill:rgb(25,27,38);"/>
                        </g>
                        <g transform="matrix(4.88812,0,0,0.325928,1819.49,324.112)">
                            <path d="M626,165.918C626,172.034 625.771,177 625.489,177L619.511,177C619.229,177 619,172.034 619,165.918C619,159.802 619.229,154.836 619.511,154.836L625.489,154.836C625.771,154.836 626,159.802 626,165.918Z" style="fill:rgb(25,27,38);"/>
                        </g>
                        <g transform="matrix(4.88812,0,0,0.325928,1819.49,353.235)">
                            <path d="M626,165.918C626,172.034 625.771,177 625.489,177L619.511,177C619.229,177 619,172.034 619,165.918C619,159.802 619.229,154.836 619.511,154.836L625.489,154.836C625.771,154.836 626,159.802 626,165.918Z" style="fill:rgb(25,27,38);"/>
                        </g>
                        <g transform="matrix(4.88812,0,0,0.325928,1819.49,382.357)">
                            <path d="M626,165.918C626,172.034 625.771,177 625.489,177L619.511,177C619.229,177 619,172.034 619,165.918C619,159.802 619.229,154.836 619.511,154.836L625.489,154.836C625.771,154.836 626,159.802 626,165.918Z" style="fill:rgb(25,27,38);"/>
                        </g>
                        <g transform="matrix(4.88812,0,0,0.325928,1819.49,411.48)">
                            <path d="M626,165.918C626,172.034 625.771,177 625.489,177L619.511,177C619.229,177 619,172.034 619,165.918C619,159.802 619.229,154.836 619.511,154.836L625.489,154.836C625.771,154.836 626,159.802 626,165.918Z" style="fill:rgb(25,27,38);"/>
                        </g>
                        <g transform="matrix(4.88812,0,0,0.325928,1865.91,265.868)">
                            <path d="M626,165.918C626,172.034 625.771,177 625.489,177L619.511,177C619.229,177 619,172.034 619,165.918C619,159.802 619.229,154.836 619.511,154.836L625.489,154.836C625.771,154.836 626,159.802 626,165.918Z" style="fill:rgb(78,85,121);"/>
                        </g>
                        <g transform="matrix(4.88812,0,0,0.325928,1865.91,294.99)">
                            <path d="M626,165.918C626,172.034 625.771,177 625.489,177L619.511,177C619.229,177 619,172.034 619,165.918C619,159.802 619.229,154.836 619.511,154.836L625.489,154.836C625.771,154.836 626,159.802 626,165.918Z" style="fill:rgb(25,27,38);"/>
                        </g>
                        <g transform="matrix(4.88812,0,0,0.325928,1865.91,324.112)">
                            <path d="M626,165.918C626,172.034 625.771,177 625.489,177L619.511,177C619.229,177 619,172.034 619,165.918C619,159.802 619.229,154.836 619.511,154.836L625.489,154.836C625.771,154.836 626,159.802 626,165.918Z" style="fill:rgb(25,27,38);"/>
                        </g>
                        <g transform="matrix(4.88812,0,0,0.325928,1865.91,353.235)">
                            <path d="M626,165.918C626,172.034 625.771,177 625.489,177L619.511,177C619.229,177 619,172.034 619,165.918C619,159.802 619.229,154.836 619.511,154.836L625.489,154.836C625.771,154.836 626,159.802 626,165.918Z" style="fill:rgb(25,27,38);"/>
                        </g>
                        <g transform="matrix(4.88812,0,0,0.325928,1865.91,382.357)">
                            <path d="M626,165.918C626,172.034 625.771,177 625.489,177L619.511,177C619.229,177 619,172.034 619,165.918C619,159.802 619.229,154.836 619.511,154.836L625.489,154.836C625.771,154.836 626,159.802 626,165.918Z" style="fill:rgb(25,27,38);"/>
                        </g>
                        <g transform="matrix(4.88812,0,0,0.325928,1865.91,411.48)">
                            <path d="M626,165.918C626,172.034 625.771,177 625.489,177L619.511,177C619.229,177 619,172.034 619,165.918C619,159.802 619.229,154.836 619.511,154.836L625.489,154.836C625.771,154.836 626,159.802 626,165.918Z" style="fill:rgb(25,27,38);"/>
                        </g>
                    </g>
                    <path d="M4950,327L4950,479C4950,489.486 4944.11,498 4936.86,498L4607.15,498C4599.89,498 4594,489.486 4594,479L4594,327C4594,316.514 4599.89,308 4607.15,308L4936.86,308C4944.11,308 4950,316.514 4950,327Z" style="fill:none;stroke:rgb(78,85,121);stroke-width:0.76px;"/>
                </g>
                <g transform="matrix(0.688979,0,0,0.688979,272.326,-244.829)">
                    <path d="M339,144.169C339,150.056 334.22,154.836 328.333,154.836L196.667,154.836C190.78,154.836 186,150.056 186,144.169C186,138.282 190.78,133.503 196.667,133.503L328.333,133.503C334.22,133.503 339,138.282 339,144.169Z" style="fill:rgb(78,85,121);"/>
                </g>
                <g transform="matrix(4.21878e-17,-0.688979,0.688979,4.21878e-17,66.707,-51.8547)">
                    <path d="M124,100L134.365,110.365L145.235,99.495" style="fill:none;stroke:rgb(78,85,121);stroke-width:2.9px;"/>
                </g>
                <g transform="matrix(4.21878e-17,-0.688979,0.688979,4.21878e-17,205.41,-51.8547)">
                    <path d="M124,100L134.365,110.365L145.235,99.495" style="fill:none;stroke:rgb(78,85,121);stroke-width:2.9px;"/>
                </g>
                <g transform="matrix(4.21878e-17,-0.688979,0.688979,4.21878e-17,313.054,-51.8547)">
                    <path d="M124,100L134.365,110.365L145.235,99.495" style="fill:none;stroke:rgb(78,85,121);stroke-width:2.9px;"/>
                </g>
                <g transform="matrix(8.16932,0,0,0.688979,-4988.68,-258.917)">
                    <path d="M626,165.918C626,172.034 625.581,177 625.065,177L619.935,177C619.419,177 619,172.034 619,165.918C619,159.802 619.419,154.836 619.935,154.836L625.065,154.836C625.581,154.836 626,159.802 626,165.918Z" style="fill:rgb(78,85,121);"/>
                </g>
                <g transform="matrix(16.2402,0,0,0.688979,-9900.75,-258.917)">
                    <path d="M626,165.918C626,172.034 625.789,177 625.53,177L619.47,177C619.211,177 619,172.034 619,165.918C619,159.802 619.211,154.836 619.47,154.836L625.53,154.836C625.789,154.836 626,159.802 626,165.918Z" style="fill:rgb(78,85,121);"/>
                </g>
                <g transform="matrix(11.3189,0,0,0.688979,-6715.78,-258.917)">
                    <path d="M626,165.918C626,172.034 625.698,177 625.325,177L619.675,177C619.302,177 619,172.034 619,165.918C619,159.802 619.302,154.836 619.675,154.836L625.325,154.836C625.698,154.836 626,159.802 626,165.918Z" style="fill:rgb(78,85,121);"/>
                </g>
            </g>
            <g transform="matrix(0.919829,0,0,3.70352,-4188.23,-1102.68)">
                <path d="M4950,316.842L4950,489.158C4950,494.038 4934.05,498 4914.4,498L4629.6,498C4609.95,498 4594,494.038 4594,489.158L4594,316.842C4594,311.962 4609.95,308 4629.6,308L4914.4,308C4934.05,308 4950,311.962 4950,316.842Z" style="fill:rgb(25,27,38);"/>
                <clipPath id="_clip3">
                    <path d="M4950,316.842L4950,489.158C4950,494.038 4934.05,498 4914.4,498L4629.6,498C4609.95,498 4594,494.038 4594,489.158L4594,316.842C4594,311.962 4609.95,308 4629.6,308L4914.4,308C4934.05,308 4950,311.962 4950,316.842Z"/>
                </clipPath>
                <g clip-path="url(#_clip3)">
                    <g transform="matrix(1,0,0,0.248366,3667.55,369.113)">
                        <g transform="matrix(1,0,0,1,-2213,-191)">
                            <path d="M3256.5,499C3302.59,499 3340,536.415 3340,582.5C3340,628.585 3302.59,666 3256.5,666C3210.41,666 3173,628.585 3173,582.5C3173,536.415 3210.41,499 3256.5,499ZM3256.5,540.75C3279.54,540.75 3298.25,559.458 3298.25,582.5C3298.25,605.542 3279.54,624.25 3256.5,624.25C3233.46,624.25 3214.75,605.542 3214.75,582.5C3214.75,559.458 3233.46,540.75 3256.5,540.75Z" style="fill:rgb(32,34,45);"/>
                        </g>
                        <g transform="matrix(1,0,0,1,-2213,-191)">
                            <path d="M3221.99,658.533L3239.24,620.517C3244.66,622.977 3250.55,624.25 3256.5,624.25L3256.5,666C3244.6,666 3232.83,663.454 3221.99,658.533Z" style="fill:rgb(158,206,106);"/>
                        </g>
                        <g transform="matrix(1,0,0,1,-2213,-191)">
                            <path d="M3183.95,623.836L3220.22,603.168C3224.6,610.847 3231.3,616.939 3239.36,620.568L3222.21,658.636C3206.1,651.378 3192.7,639.193 3183.95,623.836Z" style="fill:rgb(122,162,247);"/>
                        </g>
                        <g transform="matrix(15.8625,0,0,1,-8681.05,178.688)">
                            <path d="M626,165.918C626,172.034 625.687,177 625.301,177L619.699,177C619.313,177 619,172.034 619,165.918C619,159.802 619.313,154.836 619.699,154.836L625.301,154.836C625.687,154.836 626,159.802 626,165.918Z" style="fill:rgb(216,219,232);"/>
                        </g>
                        <g transform="matrix(7.62177,0,0,1,-3580.01,210.402)">
                            <path d="M626,165.918C626,172.034 625.348,177 624.546,177L620.454,177C619.652,177 619,172.034 619,165.918C619,159.802 619.652,154.836 620.454,154.836L624.546,154.836C625.348,154.836 626,159.802 626,165.918Z" style="fill:rgb(78,85,121);"/>
                        </g>
                    </g>
                    <g transform="matrix(11.8625,0,0,0.185736,-2711.56,290.155)">
                        <path d="M626,165.918C626,172.034 625.687,177 625.301,177L619.699,177C619.313,177 619,172.034 619,165.918C619,159.802 619.313,154.836 619.699,154.836L625.301,154.836C625.687,154.836 626,159.802 626,165.918Z" style="fill:rgb(78,85,121);"/>
                    </g>
                    <g transform="matrix(16.1483,0,0,0.185736,-5273.38,290.155)">
                        <path d="M626,165.918C626,172.034 625.77,177 625.487,177L619.513,177C619.23,177 619,172.034 619,165.918C619,159.802 619.23,154.836 619.513,154.836L625.487,154.836C625.77,154.836 626,159.802 626,165.918Z" style="fill:rgb(78,85,121);"/>
                    </g>
                    <g transform="matrix(0.41813,0,0,0.217275,4128.28,354.129)">
                        <g transform="matrix(1,0,0,1,-1940.86,19.2094)">
                            <path d="M3144,260L3815,260" style="fill:none;stroke:rgb(32,34,45);stroke-width:3.17px;"/>
                        </g>
                        <g transform="matrix(1,0,0,1,-1940.86,-58.2094)">
                            <path d="M3144,260L3815,260" style="fill:none;stroke:rgb(32,34,45);stroke-width:3.17px;"/>
                        </g>
                        <g transform="matrix(1,0,0,1,-1940.86,0)">
                            <rect x="3144" y="156" width="671" height="169" style="fill:none;stroke:rgb(32,34,45);stroke-width:3.17px;"/>
                        </g>
                        <g transform="matrix(1,0,0,1,-1940.86,0)">
                            <path d="M3230,156L3230,325" style="fill:none;stroke:rgb(32,34,45);stroke-width:3.17px;"/>
                        </g>
                        <g transform="matrix(1,0,0,1,-1851.91,0)">
                            <path d="M3230,156L3230,325" style="fill:none;stroke:rgb(32,34,45);stroke-width:3.17px;"/>
                        </g>
                        <g transform="matrix(1,0,0,1,-1762.96,0)">
                            <path d="M3230,156L3230,325" style="fill:none;stroke:rgb(32,34,45);stroke-width:3.17px;"/>
                        </g>
                        <g transform="matrix(1,0,0,1,-1674.01,0)">
                            <path d="M3230,156L3230,325" style="fill:none;stroke:rgb(32,34,45);stroke-width:3.17px;"/>
                        </g>
                        <g transform="matrix(1,0,0,1,-1585.06,0)">
                            <path d="M3230,156L3230,325" style="fill:none;stroke:rgb(32,34,45);stroke-width:3.17px;"/>
                        </g>
                        <g transform="matrix(1,0,0,1,-1496.11,0)">
                            <path d="M3230,156L3230,325" style="fill:none;stroke:rgb(32,34,45);stroke-width:3.17px;"/>
                        </g>
                        <g transform="matrix(1,0,0,1,-1407.16,0)">
                            <path d="M3230,156L3230,325" style="fill:none;stroke:rgb(32,34,45);stroke-width:3.17px;"/>
                        </g>
                        <g transform="matrix(1.5181,0,0,1,-5459.8,-38)">
                            <path d="M4389,363L4414,363L4418,336L4422,363L4432,363L4435,355L4438,363L4477,363L4483,271L4489,363L4493,363L4495,354L4497,363L4519,363L4521,335L4524,363L4539,363L4542,337L4545,363L4559,363L4562,324L4565,363L4575,363L4583,233L4591,363L4650,363L4653,345L4656,363L4674,363L4678,326L4683,363L4695,363L4700,338L4704,363L4725,363L4733,278L4740,363L4765,363L4769,345L4774,363L4783,363L4788,325L4794,363L4808,363L4812,345L4816,363L4831,363" style="fill:none;stroke:rgb(122,162,247);stroke-opacity:0.58;stroke-width:2.84px;"/>
                        </g>
                        <g transform="matrix(-1.89548,0,0,0.65,10360.2,89.05)">
                            <path d="M4477,363L4483,271L4489,363L4493,363L4495,354L4497,363L4519,363L4521,335L4524,363L4539,363L4542,337L4545,363L4559,363L4562,324L4565,363L4575,363L4583,233L4591,363L4650,363L4653,345L4656,363L4674,363L4678,326L4683,363L4695,363L4700,338L4704,363L4725,363L4733,278L4740,363L4765,363L4769,345L4774,363L4783,363L4788,325L4794,363L4808,363L4812,345L4816,363L4831,363" style="fill:none;stroke:rgb(158,206,106);stroke-opacity:0.58;stroke-width:3.15px;"/>
                        </g>
                    </g>
                    <g transform="matrix(0.41813,0,0,0.217275,3316.75,300.94)">
                        <rect x="3144" y="156" width="671" height="169" style="fill:none;"/>
                        <clipPath id="_clip4">
                            <rect x="3144" y="156" width="671" height="169"/>
                        </clipPath>
                        <g clip-path="url(#_clip4)">
                            <g transform="matrix(1,0,0,1,1.8573,19.2094)">
                                <path d="M3144,260L3815,260" style="fill:none;stroke:rgb(32,34,45);stroke-width:3.17px;"/>
                            </g>
                            <g transform="matrix(1,0,0,1,1.8573,-58.2094)">
                                <path d="M3144,260L3815,260" style="fill:none;stroke:rgb(32,34,45);stroke-width:3.17px;"/>
                            </g>
                            <g transform="matrix(1,0,0,1,1.8573,0)">
                                <path d="M3230,156L3230,325" style="fill:none;stroke:rgb(32,34,45);stroke-width:3.17px;"/>
                            </g>
                            <g transform="matrix(1,0,0,1,90.8066,0)">
                                <path d="M3230,156L3230,325" style="fill:none;stroke:rgb(32,34,45);stroke-width:3.17px;"/>
                            </g>
                            <g transform="matrix(1,0,0,1,179.756,0)">
                                <path d="M3230,156L3230,325" style="fill:none;stroke:rgb(32,34,45);stroke-width:3.17px;"/>
                            </g>
                            <g transform="matrix(1,0,0,1,268.705,0)">
                                <path d="M3230,156L3230,325" style="fill:none;stroke:rgb(32,34,45);stroke-width:3.17px;"/>
                            </g>
                            <g transform="matrix(1,0,0,1,357.654,0)">
                                <path d="M3230,156L3230,325" style="fill:none;stroke:rgb(32,34,45);stroke-width:3.17px;"/>
                            </g>
                            <g transform="matrix(1,0,0,1,446.604,0)">
                                <path d="M3230,156L3230,325" style="fill:none;stroke:rgb(32,34,45);stroke-width:3.17px;"/>
                            </g>
                            <g transform="matrix(1,0,0,1,535.553,0)">
                                <path d="M3230,156L3230,325" style="fill:none;stroke:rgb(32,34,45);stroke-width:3.17px;"/>
                            </g>
                            <g transform="matrix(2.3916,0,0,1.1431,-11723.8,-100.538)">
                                <rect x="6224" y="283" width="18" height="90.268" style="fill:rgb(122,162,247);"/>
                            </g>
                            <g transform="matrix(2.3916,0,0,1.1431,-11492.6,-100.538)">
                                <rect x="6224" y="283" width="18" height="90.268" style="fill:rgb(122,162,247);"/>
                            </g>
                            <g transform="matrix(2.3916,0,0,1.1431,-11263.4,-100.538)">
                                <rect x="6224" y="283" width="18" height="90.268" style="fill:rgb(122,162,247);"/>
                            </g>
                            <g transform="matrix(2.3916,0,0,1.51034,-11609.8,-237.616)">
                                <rect x="6224" y="283" width="18" height="90.268" style="fill:rgb(122,162,247);"/>
                            </g>
                            <g transform="matrix(2.3916,0,0,1.51034,-11378.6,-237.616)">
                                <rect x="6224" y="283" width="18" height="90.268" style="fill:rgb(122,162,247);"/>
                            </g>
                            <g transform="matrix(2.3916,0,0,1.51034,-11149.5,-237.616)">
                                <rect x="6224" y="283" width="18" height="90.268" style="fill:rgb(122,162,247);"/>
                            </g>
                            <g transform="matrix(2.3916,0,0,0.801185,-11673.4,27.0865)">
                                <rect x="6224" y="283" width="18" height="90.268" style="fill:rgb(158,206,106);"/>
                            </g>
                            <g transform="matrix(2.3916,0,0,0.801185,-11442.3,27.0865)">
                                <rect x="6224" y="283" width="18" height="90.268" style="fill:rgb(158,206,106);"/>
                            </g>
                            <g transform="matrix(2.3916,0,0,0.801185,-11213.1,27.0865)">
                                <rect x="6224" y="283" width="18" height="90.268" style="fill:rgb(158,206,106);"/>
                            </g>
                            <g transform="matrix(2.3916,0,0,0.674551,-11559.5,74.3548)">
                                <rect x="6224" y="283" width="18" height="90.268" style="fill:rgb(158,206,106);"/>
                            </g>
                            <g transform="matrix(2.3916,0,0,0.674551,-11328.3,74.3548)">
                                <rect x="6224" y="283" width="18" height="90.268" style="fill:rgb(158,206,106);"/>
                            </g>
                            <g transform="matrix(2.3916,0,0,0.674551,-11099.2,74.3548)">
                                <rect x="6224" y="283" width="18" height="90.268" style="fill:rgb(158,206,106);"/>
                            </g>
                        </g>
                        <rect x="3144" y="156" width="671" height="169" style="fill:none;stroke:rgb(32,34,45);stroke-width:3.17px;"/>
                    </g>
                </g>
                <path d="M4950,316.842L4950,489.158C4950,494.038 4934.05,498 4914.4,498L4629.6,498C4609.95,498 4594,494.038 4594,489.158L4594,316.842C4594,311.962 4609.95,308 4629.6,308L4914.4,308C4934.05,308 4950,311.962 4950,316.842Z" style="fill:none;stroke:rgb(16,16,16);stroke-width:0.74px;"/>
            </g>
            <g transform="matrix(1,0,0,1,-4045.62,0)">
                <path d="M4375.51,205.379L4502,205.379L4502,403L4594,403" style="fill:none;stroke:rgb(78,85,121);stroke-width:2px;stroke-dasharray:2,6,2,0,0,0;"/>
            </g>
        </g>
    </g>
</svg>
